<svg id="icn_einsparung_co2_32x25" xmlns="http://www.w3.org/2000/svg" width="32" height="25" viewBox="0 0 32 25">
  <rect id="Rechteck_2270" data-name="Rechteck 2270" width="32" height="25" fill="none"/>
  <path id="Icon" d="M10.912,16.843A9.367,9.367,0,0,1,9.3,16.7a9.587,9.587,0,0,1-1.575-.417A9.457,9.457,0,0,1,6.236,15.6a9.075,9.075,0,0,1-1.349-.94l-.035-.03a8.838,8.838,0,0,1-.836-.818,10.579,10.579,0,0,1-.762-.959,12.9,12.9,0,0,1-.689-1.092c-.215-.381-.423-.79-.617-1.216a20.014,20.014,0,0,1-.875-2.3A24.472,24.472,0,0,1,.438,5.762,20.639,20.639,0,0,1,0,1.89,4.627,4.627,0,0,1,.118.706,1.2,1.2,0,0,1,.249.393.83.83,0,0,1,.48.151.82.82,0,0,1,.7.039.832.832,0,0,1,.957,0a.858.858,0,0,1,.607.253,8.9,8.9,0,0,0,.7.616,7.945,7.945,0,0,0,.727.512,8,8,0,0,0,1.576.753,10.179,10.179,0,0,0,1.246.357c.425.1.942.188,1.73.312l.654.1c.432.068.687.112.973.165l.127.024a14.165,14.165,0,0,1,2.044.536,9.758,9.758,0,0,1,1.77.828,10.036,10.036,0,0,1,2.526,2.1A7.99,7.99,0,0,1,16.5,7.788a7.057,7.057,0,0,1,.582,1.324,6.4,6.4,0,0,1,.276,1.334,6.047,6.047,0,0,1-.018,1.327,5.968,5.968,0,0,1-.309,1.286q-.031.086-.065.171,1.043.238,2.152.4a.658.658,0,0,1,.587.739.7.7,0,0,1-.8.542q-1.33-.189-2.57-.486a4.792,4.792,0,0,1-.814.9,5.671,5.671,0,0,1-1.211.79,6.967,6.967,0,0,1-1.448.512,8.338,8.338,0,0,1-1.624.215c-.107,0-.216.006-.323.006ZM1.4,1.968A19.733,19.733,0,0,0,1.82,5.525a23.344,23.344,0,0,0,.657,2.537,17.9,17.9,0,0,0,.9,2.266A12.508,12.508,0,0,0,4.5,12.237,8.221,8.221,0,0,0,5.834,13.7l.045.038a7.685,7.685,0,0,0,1.133.778,8.046,8.046,0,0,0,2.559.911,7.841,7.841,0,0,0,1.341.117h.269a6.84,6.84,0,0,0,1.291-.166,5.527,5.527,0,0,0,1.133-.39,4.318,4.318,0,0,0,.931-.594,3.612,3.612,0,0,0,.37-.36,24.737,24.737,0,0,1-9.2-5.252.614.614,0,0,1-.03-.917.744.744,0,0,1,.993-.027A23.228,23.228,0,0,0,15.6,12.88a4.859,4.859,0,0,0,.127-3.4,6.2,6.2,0,0,0-1.222-2.143,8.684,8.684,0,0,0-2.166-1.789A8.347,8.347,0,0,0,10.8,4.827a8.926,8.926,0,0,0-.869-.26c-.311-.079-.617-.147-.97-.214H8.943c-.3-.057-.565-.1-1.041-.177L7.444,4.1c-.881-.138-1.432-.236-1.9-.338a11.689,11.689,0,0,1-1.392-.39l-.088-.031a9.318,9.318,0,0,1-2.63-1.424L1.4,1.9Z" transform="translate(6.146 4.08)" fill="#58bc82" stroke="#58bc82" stroke-width="0.2"/>
</svg>
