<svg id="icn_ertraege_woche_32x25" xmlns="http://www.w3.org/2000/svg" width="32" height="25" viewBox="0 0 32 25">
  <rect id="Rechteck_2269" data-name="Rechteck 2269" width="32" height="25" fill="none"/>
  <g id="Gruppe_383" data-name="Gruppe 383" transform="translate(7.892 3.75)">
    <g id="Icon_feather-calendar" data-name="Icon feather-calendar">
      <path id="Pfad_225" data-name="Pfad 225" d="M6.3,5.25H18.915A2.555,2.555,0,0,1,21.467,7.8V20.415a2.555,2.555,0,0,1-2.552,2.552H6.3a2.555,2.555,0,0,1-2.55-2.552V7.8A2.555,2.555,0,0,1,6.3,5.25ZM18.915,21.467a1.053,1.053,0,0,0,1.052-1.052V7.8a1.053,1.053,0,0,0-1.052-1.05H6.3A1.053,1.053,0,0,0,5.25,7.8V20.415A1.053,1.053,0,0,0,6.3,21.467Z" transform="translate(-4.5 -4.198)" fill="#1174c7"/>
      <path id="Pfad_226" data-name="Pfad 226" d="M24,7.354a.75.75,0,0,1-.75-.75V3a.75.75,0,0,1,1.5,0V6.6a.75.75,0,0,1-.75.754Z" transform="translate(-12.288 -3)" fill="#1174c7"/>
      <path id="Pfad_227" data-name="Pfad 227" d="M12,7.354a.75.75,0,0,1-.75-.75V3a.75.75,0,0,1,1.5,0V6.6a.75.75,0,0,1-.75.754Z" transform="translate(-7.495 -3)" fill="#1174c7"/>
      <path id="Pfad_228" data-name="Pfad 228" d="M20.717,15.75H4.5a.75.75,0,0,1,0-1.5H20.717a.75.75,0,0,1,0,1.5Z" transform="translate(-4.5 -7.793)" fill="#1174c7"/>
    </g>
    <circle id="Ellipse_100" data-name="Ellipse 100" cx="0.949" cy="0.949" r="0.949" transform="translate(1.467 8.538)" fill="#0074c7"/>
    <circle id="Ellipse_101" data-name="Ellipse 101" cx="0.949" cy="0.949" r="0.949" transform="translate(4.314 8.538)" fill="#0074c7"/>
    <circle id="Ellipse_102" data-name="Ellipse 102" cx="0.949" cy="0.949" r="0.949" transform="translate(7.16 8.538)" fill="#0074c7"/>
    <circle id="Ellipse_103" data-name="Ellipse 103" cx="0.949" cy="0.949" r="0.949" transform="translate(10.006 8.538)" fill="#0074c7"/>
    <circle id="Ellipse_104" data-name="Ellipse 104" cx="0.949" cy="0.949" r="0.949" transform="translate(12.852 8.538)" fill="#0074c7"/>
  </g>
</svg>
