<svg id="icon_modultyp" xmlns="http://www.w3.org/2000/svg" width="28" height="28" viewBox="0 0 28 28">
  <rect id="Rechteck_2211" data-name="Rechteck 2211" width="28" height="28" fill="none"/>
  <path id="Icon" d="M12.322,20.058a1.609,1.609,0,0,1-1.6-1.611V12.353a1.607,1.607,0,0,1,1.6-1.607h6.071A1.609,1.609,0,0,1,20,12.357v6.093a1.607,1.607,0,0,1-1.607,1.607Zm-.178-7.7V18.45a.179.179,0,0,0,.178.179h6.071a.179.179,0,0,0,.178-.179V12.356a.179.179,0,0,0-.178-.179H12.322a.179.179,0,0,0-.178.181Zm-10.537,7.7A1.609,1.609,0,0,1,0,18.446V12.353a1.607,1.607,0,0,1,1.607-1.607H7.679a1.609,1.609,0,0,1,1.607,1.611v6.093a1.607,1.607,0,0,1-1.607,1.611Zm-.178-7.7V18.45a.179.179,0,0,0,.178.179H7.679a.179.179,0,0,0,.178-.179V12.356a.179.179,0,0,0-.178-.179H1.607a.179.179,0,0,0-.178.181ZM12.322,9.309A1.609,1.609,0,0,1,10.72,7.7V1.608A1.607,1.607,0,0,1,12.322,0h6.071A1.609,1.609,0,0,1,20,1.611V7.7a1.607,1.607,0,0,1-1.607,1.608Zm-.178-7.7V7.7a.179.179,0,0,0,.178.179h6.071a.179.179,0,0,0,.178-.179V1.608a.179.179,0,0,0-.178-.175H12.322a.179.179,0,0,0-.178.178ZM1.607,9.313A1.609,1.609,0,0,1,0,7.7V1.608A1.607,1.607,0,0,1,1.607,0H7.679A1.609,1.609,0,0,1,9.286,1.611V7.7A1.607,1.607,0,0,1,7.679,9.313Zm-.178-7.7V7.7a.179.179,0,0,0,.178.179H7.679A.179.179,0,0,0,7.857,7.7V1.611a.179.179,0,0,0-.178-.179H1.607a.179.179,0,0,0-.178.179Z" transform="translate(4 3.969)" fill="#233977"/>
</svg>
