<svg id="fa_user_24x24" xmlns="http://www.w3.org/2000/svg" width="24" height="24" viewBox="0 0 24 24">
  <rect id="Rechteck_1989" data-name="Rechteck 1989" width="24" height="24" fill="none"/>
  <path id="user-regular" d="M11.875,5A3.125,3.125,0,1,0,8.75,8.125,3.125,3.125,0,0,0,11.875,5ZM3.75,5a5,5,0,1,1,5,5,5,5,0,0,1-5-5ZM1.926,18.125H15.574a5.092,5.092,0,0,0-5.039-4.375H6.965a5.092,5.092,0,0,0-5.039,4.375ZM0,18.84a6.963,6.963,0,0,1,6.965-6.965h3.57A6.963,6.963,0,0,1,17.5,18.84,1.16,1.16,0,0,1,16.34,20H1.16A1.16,1.16,0,0,1,0,18.84Z" transform="translate(3.25 2)" fill="#fff"/>
</svg>
