<svg id="icon_edit" xmlns="http://www.w3.org/2000/svg" width="36" height="36" viewBox="0 0 36 36">
  <g id="Komponente_1577_2" data-name="Komponente 1577 – 2">
    <rect id="Rechteck_394" data-name="Rechteck 394" width="36" height="36" rx="12" fill="#f1f7fc"/>
    <path id="Icon_metro-pencil" data-name="Icon metro-pencil" d="M16.88,1.928A2.65,2.65,0,0,1,19,6.168l-1.06,1.06-3.71-3.71,1.06-1.06a2.638,2.638,0,0,1,1.59-.53ZM3.631,14.117l-1.06,4.77,4.77-1.06,9.8-9.8-3.71-3.71Zm10.79-6.168L7,15.369l-.913-.913,7.419-7.419.913.913Z" transform="translate(7.43 7.301)" fill="#233977"/>
  </g>
  <g id="Komponente_1577_3" data-name="Komponente 1577 – 3">
    <rect id="Rechteck_394-2" data-name="Rechteck 394" width="36" height="36" rx="12" fill="#f1f7fc"/>
    <path id="Icon_metro-pencil-2" data-name="Icon metro-pencil" d="M16.88,1.928A2.65,2.65,0,0,1,19,6.168l-1.06,1.06-3.71-3.71,1.06-1.06a2.638,2.638,0,0,1,1.59-.53ZM3.631,14.117l-1.06,4.77,4.77-1.06,9.8-9.8-3.71-3.71Zm10.79-6.168L7,15.369l-.913-.913,7.419-7.419.913.913Z" transform="translate(7.43 7.301)" fill="#233977"/>
  </g>
</svg>
