<svg id="icon_wallbox" xmlns="http://www.w3.org/2000/svg" xmlns:xlink="http://www.w3.org/1999/xlink" width="28" height="28" viewBox="0 0 28 28">
  <defs>
    <clipPath id="clip-path">
      <rect id="Rechteck_449" data-name="Rechteck 449" width="25.58" height="18.194" fill="#233977"/>
    </clipPath>
  </defs>
  <rect id="Rechteck_2213" data-name="Rechteck 2213" width="28" height="28" fill="none"/>
  <g id="Gruppe_525" data-name="Gruppe 525" transform="translate(1.21 4.903)" clip-path="url(#clip-path)">
    <path id="Pfad_294" data-name="Pfad 294" d="M21.138,11.457h-6.3a1.255,1.255,0,0,0-1.254,1.254v2.7a1.255,1.255,0,0,0,1.254,1.254h6.3a1.256,1.256,0,0,0,1.253-1.254v-2.7a1.256,1.256,0,0,0-1.254-1.254m-.074,3.877H14.913V12.786h6.151Z" transform="translate(-9.072 -7.651)" fill="#233977"/>
    <path id="Pfad_295" data-name="Pfad 295" d="M24.326,4.693h-.078V3.354a.664.664,0,0,0-1.329,0V4.693h-.755V3.354a.664.664,0,0,0-1.329,0V4.693h-.257a1.256,1.256,0,0,0-1.254,1.254V6.77a3.133,3.133,0,0,0,2.549,3.073,2.448,2.448,0,0,1-.635,1.473,4.4,4.4,0,0,1-3.4.943V4.165A4.17,4.17,0,0,0,13.667,0h-9.5A4.17,4.17,0,0,0,0,4.165V14.03a4.17,4.17,0,0,0,4.165,4.164h9.5a4.17,4.17,0,0,0,4.165-4.165v-.442c.131,0,.261.01.387.01a5.258,5.258,0,0,0,3.989-1.382,3.793,3.793,0,0,0,1-2.413,3.132,3.132,0,0,0,2.374-3.033V5.946a1.255,1.255,0,0,0-1.254-1.254M16.5,14.03a2.839,2.839,0,0,1-2.832,2.831h-9.5a2.839,2.839,0,0,1-2.836-2.836V4.165A2.839,2.839,0,0,1,4.165,1.329h9.5A2.839,2.839,0,0,1,16.5,4.165Zm7.749-7.261a1.8,1.8,0,1,1-3.6,0V6.021h3.6Z" fill="#233977"/>
  </g>
</svg>
