<svg id="icon_eigentuemer" xmlns="http://www.w3.org/2000/svg" width="28" height="28" viewBox="0 0 28 28">
  <rect id="Rechteck_2145" data-name="Rechteck 2145" width="28" height="28" fill="none"/>
  <path id="Icon_MeinProfil" d="M1.529,21.109a1.549,1.549,0,0,1-.659-.141,1.445,1.445,0,0,1-.5-.379A1.533,1.533,0,0,1,.181,20.3a1.618,1.618,0,0,1-.126-.335A1.7,1.7,0,0,1,0,19.595a1.8,1.8,0,0,1,.029-.382,7.847,7.847,0,0,1,1.243-3.044,8.586,8.586,0,0,1,2.392-2.316A11.507,11.507,0,0,1,9.93,12.061,11.507,11.507,0,0,1,16.2,13.852a8.589,8.589,0,0,1,2.392,2.315,7.849,7.849,0,0,1,1.248,3.043,1.794,1.794,0,0,1,.029.382,1.7,1.7,0,0,1-.052.365,1.62,1.62,0,0,1-.126.335,1.53,1.53,0,0,1-.194.293,1.446,1.446,0,0,1-.5.379,1.55,1.55,0,0,1-.659.141Zm6.94-7.438a10.465,10.465,0,0,0-1.416.3,9.713,9.713,0,0,0-1.329.482,8.662,8.662,0,0,0-1.213.66A7.078,7.078,0,0,0,2.545,17a6.362,6.362,0,0,0-1.017,2.476.252.252,0,0,0,0,.114H18.323a.244.244,0,0,0,0-.106v-.011A6.362,6.362,0,0,0,17.306,17a7.079,7.079,0,0,0-1.966-1.9,8.661,8.661,0,0,0-1.208-.66,9.717,9.717,0,0,0-1.33-.482,10.466,10.466,0,0,0-1.416-.3,10.739,10.739,0,0,0-2.931,0ZM9,10.447a4.444,4.444,0,0,1-.884-.308,4.9,4.9,0,0,1-.81-.486,5.4,5.4,0,0,1-.73-.639,5.8,5.8,0,0,1-.615-.775,6.035,6.035,0,0,1-.989-2.907A5.492,5.492,0,0,1,5,4.234a5.049,5.049,0,0,1,.231-1.013,4.8,4.8,0,0,1,.427-.913A4.683,4.683,0,0,1,7,.885,4.836,4.836,0,0,1,7.874.406,5.091,5.091,0,0,1,8.857.1,5.525,5.525,0,0,1,9.935,0a5.426,5.426,0,0,1,1.073.106,5.064,5.064,0,0,1,.982.3,4.863,4.863,0,0,1,.872.483,4.747,4.747,0,0,1,1.343,1.431,4.828,4.828,0,0,1,.429.913,5.013,5.013,0,0,1,.238,1.01A5.369,5.369,0,0,1,14.9,5.335a6.081,6.081,0,0,1-1,2.905,5.807,5.807,0,0,1-.615.775,5.394,5.394,0,0,1-.724.641,4.9,4.9,0,0,1-.81.485,4.436,4.436,0,0,1-.884.307,4.112,4.112,0,0,1-1.868,0ZM8.495,1.785a3.308,3.308,0,0,0-.6.327,3.163,3.163,0,0,0-.925.985,3.3,3.3,0,0,0-.293.636,3.757,3.757,0,0,0-.178,1.49,4.572,4.572,0,0,0,.714,2.133,4.312,4.312,0,0,0,.434.571,3.923,3.923,0,0,0,.505.468,3.436,3.436,0,0,0,.561.353,2.952,2.952,0,0,0,.6.228,2.545,2.545,0,0,0,1.249,0,2.949,2.949,0,0,0,.6-.228,3.429,3.429,0,0,0,.561-.353,3.922,3.922,0,0,0,.505-.468,4.315,4.315,0,0,0,.434-.571,4.543,4.543,0,0,0,.347-.649,4.592,4.592,0,0,0,.368-1.483,3.676,3.676,0,0,0-.18-1.478,3.327,3.327,0,0,0-.3-.636,3.235,3.235,0,0,0-.415-.548A3.449,3.449,0,0,0,9.937,1.508a3.736,3.736,0,0,0-1.442.276Z" transform="translate(0.001 4.75)" fill="#233977"/>
  <g id="Gruppe_433" data-name="Gruppe 433" transform="translate(-428.24 -784.25)">
    <rect id="Rechteck_2206" data-name="Rechteck 2206" width="4" height="5" rx="1" transform="translate(446.24 789)" fill="#fff"/>
    <path id="Rechteck_2206_-_Kontur" data-name="Rechteck 2206 - Kontur" d="M1.4,1.4V3.258H3.258V1.4H1.4M.931,0H3.724a.931.931,0,0,1,.931.931V3.724a.931.931,0,0,1-.931.931H.931A.931.931,0,0,1,0,3.724V.931A.931.931,0,0,1,.931,0Z" transform="translate(446 789)" fill="#233977"/>
    <rect id="Rechteck_2209" data-name="Rechteck 2209" width="4" height="4" rx="1" transform="translate(446.24 795)" fill="#fff"/>
    <path id="Rechteck_2209_-_Kontur" data-name="Rechteck 2209 - Kontur" d="M1.4,1.4V3.258H3.258V1.4H1.4M.931,0H3.724a.931.931,0,0,1,.931.931V3.724a.931.931,0,0,1-.931.931H.931A.931.931,0,0,1,0,3.724V.931A.931.931,0,0,1,.931,0Z" transform="translate(446 794.585)" fill="#233977"/>
    <rect id="Rechteck_2207" data-name="Rechteck 2207" width="5" height="5" rx="1" transform="translate(451.24 789)" fill="#fff"/>
    <path id="Rechteck_2207_-_Kontur" data-name="Rechteck 2207 - Kontur" d="M1.4,1.4V3.258H3.258V1.4H1.4M.931,0H3.724a.931.931,0,0,1,.931.931V3.724a.931.931,0,0,1-.931.931H.931A.931.931,0,0,1,0,3.724V.931A.931.931,0,0,1,.931,0Z" transform="translate(451.585 789)" fill="#233977"/>
    <rect id="Rechteck_2208" data-name="Rechteck 2208" width="5" height="4" rx="1" transform="translate(451.24 795)" fill="#fff"/>
    <path id="Rechteck_2208_-_Kontur" data-name="Rechteck 2208 - Kontur" d="M1.4,1.4V3.258H3.258V1.4H1.4M.931,0H3.724a.931.931,0,0,1,.931.931V3.724a.931.931,0,0,1-.931.931H.931A.931.931,0,0,1,0,3.724V.931A.931.931,0,0,1,.931,0Z" transform="translate(451.585 794.585)" fill="#233977"/>
  </g>
</svg>
