<svg id="icon_error-alert-triangle" xmlns="http://www.w3.org/2000/svg" width="20" height="20" viewBox="0 0 20 20">
  <g id="Gruppe_410" data-name="Gruppe 410" transform="translate(0.469 1.625)">
    <rect id="Rechteck_2197" data-name="Rechteck 2197" width="20" height="20" transform="translate(-0.469 -1.625)" fill="none"/>
    <g id="Gruppe_409" data-name="Gruppe 409" transform="translate(0)">
      <path id="Pfad_385" data-name="Pfad 385" d="M10.985,3.471A2.547,2.547,0,0,1,13.15,4.69l7.021,11.721.007.012a2.532,2.532,0,0,1-2.165,3.8H3.957a2.532,2.532,0,0,1-2.165-3.8l.007-.012L8.818,4.694A2.549,2.549,0,0,1,10.985,3.471ZM18.666,17.3,11.652,5.593a.782.782,0,0,0-1.335,0L3.305,17.3a.782.782,0,0,0,.668,1.169H18a.782.782,0,0,0,.668-1.169Z" transform="translate(-1.454 -3.471)" fill="#dc493a"/>
      <path id="Pfad_386" data-name="Pfad 386" d="M18,17.689a.875.875,0,0,1-.875-.875V13.5a.875.875,0,0,1,1.75,0v3.314A.875.875,0,0,1,18,17.689Z" transform="translate(-8.469 -7.568)" fill="#dc493a"/>
      <path id="Pfad_386-2" data-name="Pfad 386" d="M18,14.475a.926.926,0,1,1,.875-.875A.875.875,0,0,1,18,14.475Z" transform="translate(-8.469 -1.568)" fill="#dc493a"/>
    </g>
  </g>
</svg>
