<svg id="icon_plus" xmlns="http://www.w3.org/2000/svg" width="14" height="14" viewBox="0 0 14 14">
  <g id="Gruppe_340" data-name="Gruppe 340">
    <rect id="Rechteck_2149" data-name="Rechteck 2149" width="13.067" height="14" fill="none"/>
    <path id="icon_plus-2" data-name="icon_plus" d="M10.308,7.29H6.558v4.165a1.037,1.037,0,0,1-.46.906.877.877,0,0,1-.955,0,1.037,1.037,0,0,1-.46-.906V7.29H.935A1,1,0,0,1-.027,6.249,1,1,0,0,1,.935,5.207H4.684V1.041a1.037,1.037,0,0,1,.46-.906.877.877,0,0,1,.955,0,1.037,1.037,0,0,1,.46.906V5.206h3.749a1,1,0,0,1,.962,1.041,1,1,0,0,1-.962,1.041Z" transform="translate(0.912 0.752)" fill="#fff"/>
  </g>
</svg>
