<svg id="fa_icon_awesome-arrow-left_20x20" xmlns="http://www.w3.org/2000/svg" width="20" height="20" viewBox="0 0 20 20">
  <rect id="Rechteck_1951" data-name="Rechteck 1951" width="20" height="20" fill="none"/>
  <path id="Icon_awesome-arrow-left" data-name="Icon awesome-arrow-left" d="M9.134,17.1l-.788.788a.848.848,0,0,1-1.2,0L.247,11a.848.848,0,0,1,0-1.2l6.9-6.9a.848.848,0,0,1,1.2,0l.788.788A.852.852,0,0,1,9.12,4.9L4.845,8.975h10.2a.849.849,0,0,1,.851.851v1.135a.849.849,0,0,1-.851.851H4.845L9.12,15.886A.846.846,0,0,1,9.134,17.1Z" transform="translate(2.003 -0.394)" fill="#233977"/>
</svg>
