<svg id="icn_einsparung_strom_32x25" xmlns="http://www.w3.org/2000/svg" width="32" height="25" viewBox="0 0 32 25">
  <rect id="Rechteck_2271" data-name="Rechteck 2271" width="32" height="25" fill="none"/>
  <path id="Icon" d="M5.742,20.576A.688.688,0,1,1,5.728,19.2H8.614a.686.686,0,1,1,.014,1.372H5.742Zm-.718-2.058a.686.686,0,0,1-.014-1.372H9.331a.686.686,0,1,1,.014,1.372H5.025Zm3.589-2.73V14.746a3.046,3.046,0,0,1,.6-1.712,8.18,8.18,0,0,1,1.161-1.314l.089-.084.191-.177.157-.144.355-.322A5.4,5.4,0,0,0,12.92,6.859,5.586,5.586,0,0,0,7.176,1.372a5.863,5.863,0,0,0-4.064,1.6A5.35,5.35,0,0,0,1.436,6.859a5.551,5.551,0,0,0,1.716,4.1l.033.03.382.342.088.079c.123.111.23.21.334.308a8,8,0,0,1,1.158,1.311,3.078,3.078,0,0,1,.6,1.685v1.059a.719.719,0,0,1-1.435.013v-1.04c0-.55-.436-1.2-1.3-2.027l-.071-.067c-.09-.085-.185-.172-.3-.271l-.1-.094-.335-.3A6.881,6.881,0,0,1,0,6.861,6.69,6.69,0,0,1,2.1,2,7.332,7.332,0,0,1,7.178,0a6.99,6.99,0,0,1,7.178,6.859A6.741,6.741,0,0,1,12.2,11.944l-.09.082-.334.3c-.146.132-.262.239-.372.344l-.021.02c-.885.842-1.329,1.491-1.338,2.037v1.045a.719.719,0,0,1-1.435.013Zm-2.153,0V10.859a4.437,4.437,0,0,1-.752-.31c-.166-.085-.323-.176-.468-.267l-.04-.027L5.12,10.2l-.044-.03-.026-.018h0a.666.666,0,0,1-.148-.96.74.74,0,0,1,.992-.15l.028.019.013.009.1.066a3.588,3.588,0,0,0,.357.2,2.884,2.884,0,0,0,.548.222.773.773,0,0,0,.483,0,2.884,2.884,0,0,0,.548-.222c.126-.065.247-.135.357-.2l.032-.02.057-.037.041-.028a.74.74,0,0,1,1,.141.666.666,0,0,1-.135.951l-.013.009-.039.027-.018.012c-.041.027-.087.058-.138.09-.144.091-.3.182-.468.267a4.438,4.438,0,0,1-.752.31v4.916a.719.719,0,0,1-1.435.013Z" transform="translate(8.821 2.215)" fill="#fecf43"/>
</svg>
