<svg id="icon_synch" xmlns="http://www.w3.org/2000/svg" width="48" height="48" viewBox="0 0 48 48">
  <g id="Komponente_1549_3" data-name="Komponente 1549 – 3">
    <rect id="Rechteck_282" data-name="Rechteck 282" width="48" height="48" rx="12" fill="#f1f7fc"/>
    <circle id="Ellipse_41" data-name="Ellipse 41" cx="4" cy="4" r="4" transform="translate(33 6.002)" fill="#dc493a"/>
    <path id="Icon" d="M10.291,20.06a9.878,9.878,0,0,1-3.544-1.494,10.132,10.132,0,0,1-4.221-6.248,10.306,10.306,0,0,1-.23-2.012v-.5l-.895.908a.811.811,0,0,1-1.146.013L.24,10.718A.839.839,0,0,1,.227,9.556L.24,9.543,2.492,7.257a.81.81,0,0,1,1.131-.026l.014.013L5.992,9.53A.841.841,0,0,1,6.018,10.7a.811.811,0,0,1-1.145.039l-.014-.013-.929-.9v.31a8.642,8.642,0,0,0,.17,1.7,8.463,8.463,0,0,0,3.512,5.311,8.28,8.28,0,0,0,8.29.608,8.432,8.432,0,0,0,2.912-2.333.812.812,0,0,1,.637-.309.829.829,0,0,1,.269.046.8.8,0,0,1,.246.139.839.839,0,0,1,.122,1.169,10.164,10.164,0,0,1-1.6,1.6,9.919,9.919,0,0,1-8.2,1.985Zm10.657-7.03-.014-.013L18.58,10.732a.839.839,0,0,1-.026-1.175.81.81,0,0,1,1.144-.04l.014.013.9.874V10.12a8.628,8.628,0,0,0-.169-1.7,8.471,8.471,0,0,0-3.514-5.308,8.245,8.245,0,0,0-4.671-1.445h-.011A8.253,8.253,0,0,0,8.628,2.5a8.377,8.377,0,0,0-2.9,2.349.81.81,0,0,1-.906.268.837.837,0,0,1-.374-1.3A10.011,10.011,0,0,1,7.917,1a9.847,9.847,0,0,1,4.329-1h.013A9.877,9.877,0,0,1,17.8,1.7a10.146,10.146,0,0,1,4.221,6.246,10.288,10.288,0,0,1,.23,2.01v.527l.923-.936a.812.812,0,0,1,1.145-.013l.014.013a.84.84,0,0,1,.014,1.162l-.014.014L22.079,13a.81.81,0,0,1-1.131.026Z" transform="translate(11.715 13.369)" fill="#233977"/>
  </g>
  <path id="Icon_-_Kontur" data-name="Icon - Kontur" d="M12.286,20.311h0a9.88,9.88,0,0,1-5.563-1.7,10.182,10.182,0,0,1-4.242-6.279,10.364,10.364,0,0,1-.232-2.021V9.932l-.81.822a.861.861,0,0,1-1.215.014L.2,10.754A.9.9,0,0,1,.19,9.522L.2,9.508,2.457,7.222a.86.86,0,0,1,1.2-.028l.014.014L6.027,9.494a.891.891,0,0,1,.027,1.245.861.861,0,0,1-1.215.042l-.014-.013-.844-.819v.191a8.587,8.587,0,0,0,.169,1.7,8.411,8.411,0,0,0,3.491,5.279,8.224,8.224,0,0,0,9.806-.383,8.442,8.442,0,0,0,1.33-1.336A.86.86,0,0,1,20,15.269a.89.89,0,0,1,.129,1.239,10.127,10.127,0,0,1-3.5,2.8,9.985,9.985,0,0,1-4.345,1ZM2.343,9.688v.618a10.263,10.263,0,0,0,.229,2,10.072,10.072,0,0,0,4.2,6.217,9.847,9.847,0,0,0,9.813.694,10.027,10.027,0,0,0,3.463-2.773.79.79,0,0,0-.114-1.1.759.759,0,0,0-1.081.115,8.486,8.486,0,0,1-2.93,2.347A8.336,8.336,0,0,1,7.585,17.2a8.518,8.518,0,0,1-3.533-5.341,8.687,8.687,0,0,1-.171-1.716V9.712l1.027,1a.761.761,0,0,0,1.074-.037.791.791,0,0,0-.024-1.1L3.59,7.27a.76.76,0,0,0-1.061.025L.263,9.591a.794.794,0,0,0,.013,1.092l.013.013a.761.761,0,0,0,1.074-.013ZM21.5,13.3a.86.86,0,0,1-.586-.231l-.014-.014-2.355-2.286a.891.891,0,0,1-.027-1.245.861.861,0,0,1,1.215-.042l.014.013.817.793V10.12a8.571,8.571,0,0,0-.169-1.694A8.415,8.415,0,0,0,16.9,3.148a8.209,8.209,0,0,0-4.644-1.436h-.01a8.192,8.192,0,0,0-3.6.833A8.313,8.313,0,0,0,5.764,4.88a.86.86,0,0,1-1.222.139A.89.89,0,0,1,4.4,3.781,10.056,10.056,0,0,1,7.9.958,9.906,9.906,0,0,1,12.246-.05h.012a9.914,9.914,0,0,1,5.566,1.7,10.184,10.184,0,0,1,4.243,6.277,10.351,10.351,0,0,1,.232,2.02v.4l.837-.849a.861.861,0,0,1,1.215-.014l.014.014a.9.9,0,0,1,.014,1.232l-.014.014-2.253,2.286A.857.857,0,0,1,21.5,13.3ZM19.145,9.349a.757.757,0,0,0-.556.241.791.791,0,0,0,.024,1.1l2.368,2.3a.76.76,0,0,0,1.061-.025l2.265-2.3A.794.794,0,0,0,24.3,9.578l-.013-.013a.761.761,0,0,0-1.074.013L22.2,10.6V9.953a10.25,10.25,0,0,0-.229-2,10.077,10.077,0,0,0-4.2-6.216A9.9,9.9,0,0,0,16.092.826,9.8,9.8,0,0,0,12.259.05h-.012a9.806,9.806,0,0,0-4.307,1,9.957,9.957,0,0,0-3.456,2.8.79.79,0,0,0,.122,1.1.762.762,0,0,0,1.081-.124,8.413,8.413,0,0,1,2.92-2.363,8.291,8.291,0,0,1,3.641-.843h.01a8.3,8.3,0,0,1,4.7,1.453,8.519,8.519,0,0,1,3.535,5.34,8.671,8.671,0,0,1,.171,1.714v.4l-1-.97A.76.76,0,0,0,19.145,9.349Z" transform="translate(11.715 13.369)" fill="#233977"/>
  <rect id="Rechteck_282-2" data-name="Rechteck 282" width="48" height="48" rx="12" fill="#f1f7fc"/>
  <path id="Icon-2" data-name="Icon" d="M10.291,20.06a9.878,9.878,0,0,1-3.544-1.494,10.132,10.132,0,0,1-4.221-6.248,10.306,10.306,0,0,1-.23-2.012v-.5l-.895.908a.811.811,0,0,1-1.146.013L.24,10.718A.839.839,0,0,1,.227,9.556L.24,9.543,2.492,7.257a.81.81,0,0,1,1.131-.026l.014.013L5.992,9.53A.841.841,0,0,1,6.018,10.7a.811.811,0,0,1-1.145.039l-.014-.013-.929-.9v.31a8.642,8.642,0,0,0,.17,1.7,8.463,8.463,0,0,0,3.512,5.311,8.28,8.28,0,0,0,8.29.608,8.432,8.432,0,0,0,2.912-2.333.812.812,0,0,1,.637-.309.829.829,0,0,1,.269.046.8.8,0,0,1,.246.139.839.839,0,0,1,.122,1.169,10.164,10.164,0,0,1-1.6,1.6,9.919,9.919,0,0,1-8.2,1.985Zm10.657-7.03-.014-.013L18.58,10.732a.839.839,0,0,1-.026-1.175.81.81,0,0,1,1.144-.04l.014.013.9.874V10.12a8.628,8.628,0,0,0-.169-1.7,8.471,8.471,0,0,0-3.514-5.308,8.245,8.245,0,0,0-4.671-1.445h-.011A8.253,8.253,0,0,0,8.628,2.5a8.377,8.377,0,0,0-2.9,2.349.81.81,0,0,1-.906.268.837.837,0,0,1-.374-1.3A10.011,10.011,0,0,1,7.917,1a9.847,9.847,0,0,1,4.329-1h.013A9.877,9.877,0,0,1,17.8,1.7a10.146,10.146,0,0,1,4.221,6.246,10.288,10.288,0,0,1,.23,2.01v.527l.923-.936a.812.812,0,0,1,1.145-.013l.014.013a.84.84,0,0,1,.014,1.162l-.014.014L22.079,13a.81.81,0,0,1-1.131.026Z" transform="translate(11.715 13.369)" fill="#233977"/>
</svg>
