<svg xmlns="http://www.w3.org/2000/svg" xmlns:xlink="http://www.w3.org/1999/xlink" width="113.952" height="30" viewBox="0 0 113.952 30">
  <defs>
    <clipPath id="clip-path">
      <rect id="Rechteck_1" data-name="Rechteck 1" width="113.952" height="30" fill="none"/>
    </clipPath>
  </defs>
  <g id="Logo_inverted" transform="translate(-778 -492)">
    <g id="power-manager-logo-inverted" transform="translate(778 492)" clip-path="url(#clip-path)">
      <path id="Pfad_1" data-name="Pfad 1" d="M220.371,20.207l-3.78-5.392h-5l.778-4.308h7.255a3.064,3.064,0,0,0,3.252-3.2,2.063,2.063,0,0,0-2.307-2.2h-9.728l-2.669,15.093h-5.114L206.612,0h14.842c4.225,0,6.588,2.419,6.588,6.2a8.046,8.046,0,0,1-5.364,7.95l4.975,6.059Z" transform="translate(-139.794)" fill="#fff"/>
      <path id="Pfad_2" data-name="Pfad 2" d="M299.251,20.207c-5.17,0-8.533-3.7-8.533-8.672,0-6.782,5.5-11.535,12.091-11.535H314.1l-.872,5.109-11.307.006a5.926,5.926,0,0,0-6,5.837,3.948,3.948,0,0,0,4.253,4.114h11.358l-.88,5.142Z" transform="translate(-200.147)" fill="#fff"/>
      <path id="Pfad_3" data-name="Pfad 3" d="M125.847,48.391H120.7l-.9,5.131h5.174Z" transform="translate(-82.475 -33.315)" fill="#6eabde"/>
      <path id="Pfad_4" data-name="Pfad 4" d="M144.8,9.339a5.458,5.458,0,0,0,2.668-4.864c0-2.946-2.418-4.475-6.2-4.475H126.317l-2.223,12.624h5.125l1.323-7.537h9.978c1,0,1.446.5,1.446,1.2,0,1-.639,1.723-1.974,1.723h-7.5l-.667,3.864h7.866c.973,0,1.446.5,1.446,1.279a1.818,1.818,0,0,1-2,1.918h-7.849l-.874,5.142h7.917c4.587,0,8.116-2.974,8.116-7.421A4.1,4.1,0,0,0,144.8,9.34" transform="translate(-85.433)" fill="#fff"/>
      <path id="Pfad_5" data-name="Pfad 5" d="M137.456,81.363h-1.087A2.6,2.6,0,0,0,133.737,84a1.814,1.814,0,0,0,1.831,1.955h1.087a2.7,2.7,0,0,0,2.662-2.728,1.745,1.745,0,0,0-1.862-1.862m-.693,3.923h-1.088a1.258,1.258,0,0,1-1.268-1.358,1.858,1.858,0,0,1,1.856-1.9h1.087a1.225,1.225,0,0,1,1.287,1.327,1.906,1.906,0,0,1-1.875,1.931" transform="translate(-92.072 -56.014)" fill="#fff"/>
      <path id="Pfad_6" data-name="Pfad 6" d="M159.626,81.364l-2.642,3.706-1.255-3.685-.007-.021h-.8l.841,2.367-.98,1.34-1.318-3.687-.007-.021h-.792l1.628,4.437a.3.3,0,0,0,.311.214.464.464,0,0,0,.375-.206l1.009-1.415.5,1.407a.308.308,0,0,0,.311.214.476.476,0,0,0,.381-.206l3.162-4.4.035-.049Z" transform="translate(-105.105 -56.016)" fill="#fff"/>
      <path id="Pfad_7" data-name="Pfad 7" d="M226.032,81.467c-.021-.188-.118-.283-.287-.283a.417.417,0,0,0-.364.227l-2.029,3.47-.807-3.46a.292.292,0,0,0-.306-.236.4.4,0,0,0-.385.273L219.84,85.83h.669l1.595-3.454.748,3.261a.292.292,0,0,0,.306.255.434.434,0,0,0,.383-.246l1.914-3.269.365,3.424,0,.028h.669Z" transform="translate(-151.35 -55.892)" fill="#fff"/>
      <path id="Pfad_8" data-name="Pfad 8" d="M268.823,81.207l-.642,3.613-2.763-3.489a.368.368,0,0,0-.287-.155.431.431,0,0,0-.418.4l-.744,4.21-.007.036h.645l.642-3.619L268,85.71a.39.39,0,0,0,.306.167.436.436,0,0,0,.406-.393l.75-4.241.006-.037Z" transform="translate(-181.728 -55.884)" fill="#fff"/>
      <path id="Pfad_9" data-name="Pfad 9" d="M303.563,83.927h2.187l-.238,1.358h-2.055a1.258,1.258,0,0,1-1.269-1.358,1.858,1.858,0,0,1,1.856-1.9h2.445l.117-.666H304.15A2.6,2.6,0,0,0,301.519,84a1.814,1.814,0,0,0,1.831,1.955h2.72l.467-2.646h-2.863Z" transform="translate(-207.583 -56.013)" fill="#fff"/>
      <path id="Pfad_10" data-name="Pfad 10" d="M118.9,81.364h-3.182l-.8,4.553-.006.036h.67l.229-1.3h2.526a1.88,1.88,0,0,0,1.962-1.967,1.251,1.251,0,0,0-1.394-1.327m-.47,2.647h-2.511l.35-1.98H118.8a.739.739,0,0,1,.831.791,1.14,1.14,0,0,1-1.194,1.189" transform="translate(-79.109 -56.016)" fill="#fff"/>
      <path id="Pfad_11" data-name="Pfad 11" d="M181.8,82.03l.117-.666h-4.051l-.8,4.553-.007.036h4.057l.117-.666h-3.387l.24-1.357H181.3l.111-.623h-3.212l.226-1.277Z" transform="translate(-121.896 -56.016)" fill="#fff"/>
      <path id="Pfad_12" data-name="Pfad 12" d="M199.449,82.7a1.25,1.25,0,0,0-1.381-1.339h-3.251l-.8,4.553-.007.036h.669l.227-1.282h2.537l.965,1.271.01.012h.944l-1.151-1.405a1.878,1.878,0,0,0,1.241-1.845m-3.683,1.345h-.753l.357-2.018h2.592c.543,0,.818.253.818.754a1.117,1.117,0,0,1-1.187,1.264Z" transform="translate(-133.565 -56.016)" fill="#fff"/>
      <path id="Pfad_13" data-name="Pfad 13" d="M246.623,81.377a.3.3,0,0,0-.284-.218.453.453,0,0,0-.362.211l-3.424,4.39-.039.05h.773l.939-1.214h2.982l.513,1.214h.8Zm-1.189,2.634h-.756l1.479-1.912.8,1.913Z" transform="translate(-166.96 -55.873)" fill="#fff"/>
      <path id="Pfad_14" data-name="Pfad 14" d="M285.252,81.377a.3.3,0,0,0-.284-.218.452.452,0,0,0-.362.211l-3.425,4.39-.039.05h.773l.939-1.214h2.981l.512,1.214h.8ZM284.1,84.011h-.792l1.478-1.912.8,1.913Z" transform="translate(-193.554 -55.873)" fill="#fff"/>
      <path id="Pfad_15" data-name="Pfad 15" d="M324.958,82.03l.117-.666h-4.051l-.8,4.553-.006.036h4.057l.117-.666H321l.24-1.359h3.211l.111-.623h-3.212l.226-1.276Z" transform="translate(-220.453 -56.016)" fill="#fff"/>
      <path id="Pfad_16" data-name="Pfad 16" d="M342.6,82.7a1.25,1.25,0,0,0-1.381-1.339h-3.251l-.8,4.553-.007.036h.669l.227-1.283H340.6l.965,1.271.01.012h.944l-1.151-1.405a1.877,1.877,0,0,0,1.241-1.845m-3.913,1.345h-.523l.357-2.018h2.592c.543,0,.819.253.819.754a1.117,1.117,0,0,1-1.188,1.264Z" transform="translate(-232.122 -56.016)" fill="#fff"/>
      <path id="Pfad_17" data-name="Pfad 17" d="M35.146.028H5.251L0,29.946H30.077Z" transform="translate(0 -0.019)" fill="#6eabde"/>
      <path id="Pfad_18" data-name="Pfad 18" d="M44.331,23.094h0a.62.62,0,0,0-.617-.577H27.35a.621.621,0,0,0-.617.577L26,33.88a.619.619,0,0,0,.576.659H33.5v2.7h-.3a.619.619,0,1,0-.032,1.238h4.712a.619.619,0,1,0,0-1.238h-.3v-2.7h6.868a.619.619,0,0,0,.619-.619c0-.014,0-.027,0-.041ZM36.337,37.238h-1.6v-2.7h1.6Zm-1.424-8.09v4.158h-7.63l.281-4.156Zm-7.265-1.237.283-4.156h6.982v4.156Zm8.5,0V23.755h6.985l.281,4.156Zm7.63,5.395H36.15V29.148H43.5Z" transform="translate(-17.901 -15.502)" fill="#fff"/>
    </g>
  </g>
</svg>
