<svg id="icon_livedaten_37x32" xmlns="http://www.w3.org/2000/svg" xmlns:xlink="http://www.w3.org/1999/xlink" width="37" height="32" viewBox="0 0 37 32">
  <defs>
    <clipPath id="clip-path">
      <rect id="Rechteck_483" data-name="Rechteck 483" width="36.01" height="21.634" fill="#233977"/>
    </clipPath>
  </defs>
  <rect id="Rechteck_2177" data-name="Rechteck 2177" width="37" height="32" fill="none"/>
  <g id="Gruppe_615" data-name="Gruppe 615" transform="translate(0.99 5.183)">
    <g id="Gruppe_614" data-name="Gruppe 614" clip-path="url(#clip-path)">
      <path id="Pfad_331" data-name="Pfad 331" d="M25.086,4.343,24.846.782A.841.841,0,0,0,24.009,0H1.827A.842.842,0,0,0,.99.782L0,15.4a.839.839,0,0,0,.837.9h9.318v3.655H9.744a.839.839,0,1,0,0,1.678h6.346a.839.839,0,1,0,0-1.678h-.4V16.3h3.422a.839.839,0,0,0,0-1.678H13.757V8.989h5.353a.839.839,0,0,0,0-1.678H13.757V1.678h9.472l.038.563v.03l.152,2.2.047.7h0l.095,1.355A.839.839,0,1,0,25.234,6.4ZM2.611,1.678h9.472V7.312H2.231ZM1.736,14.622l.379-5.634h9.964v5.634Zm12.273,5.333H11.831V16.3h2.179Z" transform="translate(0)" fill="#233977"/>
      <path id="Pfad_332" data-name="Pfad 332" d="M77.639,41.785a7.6,7.6,0,0,1,0-10.122.637.637,0,0,1,.947.853,6.331,6.331,0,0,0,0,8.422.637.637,0,1,1-.947.853m9.919-.166a.638.638,0,0,1,.111-.686,6.331,6.331,0,0,0,0-8.422.637.637,0,0,1,.947-.853,7.6,7.6,0,0,1,0,10.122.637.637,0,0,1-1.056-.166Zm-1.05-.938a.637.637,0,0,1-.474-1.076,4.231,4.231,0,0,0,0-5.778.637.637,0,1,1,.907-.9l.024.026a5.5,5.5,0,0,1,0,7.518.634.634,0,0,1-.464.2Zm-7.229-.206a5.5,5.5,0,0,1,0-7.518.637.637,0,0,1,.955.845l-.024.026a4.231,4.231,0,0,0,0,5.778.638.638,0,1,1-.931.871m1.466-1.487a3.419,3.419,0,0,1,0-4.542.638.638,0,0,1,.978.817L81.7,35.3a2.144,2.144,0,0,0,0,2.848.637.637,0,0,1-.952.847m3.707-.162a.637.637,0,0,1,.105-.684,2.144,2.144,0,0,0,0-2.848.637.637,0,1,1,.889-.914.661.661,0,0,1,.063.071,3.419,3.419,0,0,1,0,4.547.637.637,0,0,1-1.057-.162Zm-2.368-2.109a1.042,1.042,0,1,1,1.042,1.042,1.042,1.042,0,0,1-1.042-1.042" transform="translate(-54.538 -22.667)" fill="#233977"/>
    </g>
  </g>
</svg>
