<svg id="icon_strombezug" xmlns="http://www.w3.org/2000/svg" width="28" height="28" viewBox="0 0 28 28">
  <rect id="Rechteck_2205" data-name="Rechteck 2205" width="28" height="28" fill="none"/>
  <path id="Icon" d="M0,18.972V5.046a2.85,2.85,0,0,1,.22-1,3.61,3.61,0,0,1,.638-.992,5.562,5.562,0,0,1,.993-.882,8.694,8.694,0,0,1,1.32-.747,12.735,12.735,0,0,1,1.6-.6A17.1,17.1,0,0,1,6.6.375C7.245.255,7.923.158,8.615.1s1.43-.1,2.159-.1,1.456.032,2.159.1,1.367.16,2.016.28a17.1,17.1,0,0,1,1.83.448,12.735,12.735,0,0,1,1.6.605,8.694,8.694,0,0,1,1.32.747,5.562,5.562,0,0,1,1,.876,3.61,3.61,0,0,1,.638.992,2.85,2.85,0,0,1,.22,1V18.882c0,3.022-4.867,5.1-10.774,5.1C4.926,23.98.1,21.946,0,18.972Zm1.66-.091c0,.7.824,1.532,2.4,2.208a17.761,17.761,0,0,0,6.716,1.177,17.761,17.761,0,0,0,6.716-1.177c1.562-.666,2.385-1.486,2.4-2.186V17.167c-1.915,1.44-5.3,2.316-9.117,2.316s-7.2-.875-9.117-2.316Zm2.4-2.3a17.6,17.6,0,0,0,6.714,1.189,17.6,17.6,0,0,0,6.714-1.189c1.563-.673,2.388-1.5,2.4-2.215v-1.8c-1.915,1.44-5.3,2.316-9.117,2.316s-7.2-.875-9.118-2.316v1.781c0,.721.822,1.558,2.4,2.237Zm0-4.6a17.6,17.6,0,0,0,6.714,1.189,17.6,17.6,0,0,0,6.715-1.19c1.563-.673,2.388-1.5,2.4-2.215v-1.8q-.094.072-.194.14a8.694,8.694,0,0,1-1.32.747,12.722,12.722,0,0,1-1.6.605,17.1,17.1,0,0,1-1.83.448,19.513,19.513,0,0,1-2.016.278c-.692.063-1.43.1-2.159.1s-1.458-.031-2.164-.094S7.243,10.024,6.6,9.9a17.094,17.094,0,0,1-1.83-.455,12.722,12.722,0,0,1-1.6-.6A8.694,8.694,0,0,1,1.851,8.1q-.1-.069-.194-.14V9.742c0,.718.825,1.558,2.4,2.237ZM1.811,5.7a2.347,2.347,0,0,0,.456.576,4.616,4.616,0,0,0,.752.569,7.962,7.962,0,0,0,1.042.535,11.986,11.986,0,0,0,1.43.5,16.227,16.227,0,0,0,1.624.373c.571.1,1.17.18,1.779.232s1.253.08,1.887.08,1.269-.027,1.887-.08,1.207-.128,1.779-.232a16.228,16.228,0,0,0,1.624-.373,11.986,11.986,0,0,0,1.422-.5,7.962,7.962,0,0,0,1.042-.535,4.614,4.614,0,0,0,.752-.569,2.347,2.347,0,0,0,.456-.576,1.182,1.182,0,0,0,.153-.557,1.182,1.182,0,0,0-.153-.557,2.346,2.346,0,0,0-.456-.576,4.613,4.613,0,0,0-.752-.569A7.962,7.962,0,0,0,17.492,2.9a11.986,11.986,0,0,0-1.424-.5,16.236,16.236,0,0,0-1.624-.373c-.571-.1-1.17-.18-1.779-.232s-1.253-.08-1.887-.08-1.269.027-1.887.08-1.207.128-1.779.232A16.226,16.226,0,0,0,5.49,2.4a11.985,11.985,0,0,0-1.424.5,7.962,7.962,0,0,0-1.042.535,4.618,4.618,0,0,0-.752.569,2.346,2.346,0,0,0-.456.576A1.11,1.11,0,0,0,1.811,5.7Z" transform="translate(3.224 2.01)" fill="#233977"/>
</svg>
