<svg id="icon_einstellungen" xmlns="http://www.w3.org/2000/svg" width="28" height="28" viewBox="0 0 28 28">
  <g id="Gruppe_337" data-name="Gruppe 337">
    <rect id="Rechteck_2147" data-name="Rechteck 2147" width="28" height="28" fill="none"/>
    <path id="icon_einstellungen-2" data-name="icon_einstellungen" d="M9.917,25H9.91a1.479,1.479,0,0,1-1.434-1.176v-.055l-.368-2.6h0a9.415,9.415,0,0,1-1.226-.706l-.068-.048L4.348,21.4H4.341a1.472,1.472,0,0,1-1.773-.6l-.012-.019L.2,16.758A1.449,1.449,0,0,1,.533,14.9l.018-.014,2.087-1.627h0v-.007c-.024-.271-.035-.518-.035-.754s.012-.492.035-.744L.547,10.119.523,10.1A1.448,1.448,0,0,1,.189,8.28L.2,8.26,2.546,4.23A1.473,1.473,0,0,1,4.31,3.6l.029.011L6.8,4.6H6.81a9.936,9.936,0,0,1,1.214-.714L8.1,3.846l.369-2.61V1.215A1.48,1.48,0,0,1,9.885,0h4.74a1.479,1.479,0,0,1,1.434,1.176v.055l.368,2.6h0a9.417,9.417,0,0,1,1.226.706l.068.048L20.193,3.6H20.2a1.472,1.472,0,0,1,1.773.6l.012.019,2.347,4.029A1.449,1.449,0,0,1,24,10.1l-.018.014-2.091,1.63h0v.011c.023.28.033.518.033.752,0,.189-.008.382-.022.571l-.007.1-.006.074,2.1,1.631.014.011a1.448,1.448,0,0,1,.345,1.832l-.011.02L21.985,20.77a1.473,1.473,0,0,1-1.764.626l-.029-.011L17.729,20.4h-.008a9.925,9.925,0,0,1-1.214.714l-.078.038-.369,2.61v.021A1.48,1.48,0,0,1,14.649,25ZM6.8,18.677a1.761,1.761,0,0,1,.956.282l.024.015.023.015a7.638,7.638,0,0,0,.982.577l.068.033a1.746,1.746,0,0,1,.98,1.3v.026l.33,2.332h4.2l.333-2.351a1.736,1.736,0,0,1,.921-1.3l.024-.012.024-.012a8.149,8.149,0,0,0,1-.57l.066-.043a1.771,1.771,0,0,1,1.633-.2l.026.01,2.219.887L22.7,16.08l-2.27-1.767a.866.866,0,0,1-.331-.767v-.038a7.459,7.459,0,0,0,.075-1.007c0-.168-.007-.357-.024-.561v-.065a1.738,1.738,0,0,1,.642-1.485l.022-.017L22.7,8.9,20.6,5.311,18.385,6.2a1.764,1.764,0,0,1-1.609-.156l-.024-.015-.024-.015a7.644,7.644,0,0,0-.982-.577L15.677,5.4a1.746,1.746,0,0,1-.98-1.3V4.071l-.33-2.332h-4.2L9.839,4.09a1.737,1.737,0,0,1-.921,1.3L8.894,5.4l-.024.012a8.153,8.153,0,0,0-1,.57l-.063.043a1.771,1.771,0,0,1-1.633.2l-.026-.01L3.932,5.326,1.84,8.919l1.879,1.467a1.735,1.735,0,0,1,.668,1.467v.054c-.019.207-.029.4-.029.6,0,.171.008.357.024.55l.006.074a1.735,1.735,0,0,1-.135.82,1.761,1.761,0,0,1-.505.667l-.022.017L1.838,16.1,3.93,19.689,6.149,18.8a1.755,1.755,0,0,1,.654-.125Zm5.465-1.829a4.392,4.392,0,0,1-3.1-1.274,4.347,4.347,0,0,1,3.1-7.423c.143,0,.289.007.433.021a4.347,4.347,0,0,1-.431,8.674Zm0-6.957a2.647,2.647,0,1,0,.256.013,2.291,2.291,0,0,0-.257-.013Z" transform="translate(1.734 1.5)" fill="#233977"/>
  </g>
</svg>
