<svg id="icon_checkmark" xmlns="http://www.w3.org/2000/svg" width="24" height="24" viewBox="0 0 24 24">
  <rect id="Rechteck_2153" data-name="Rechteck 2153" width="24" height="24" fill="none"/>
  <path id="Icon_awesome-check-circle" data-name="Icon awesome-check-circle" d="M20.563,10.563a10,10,0,1,1-10-10A10,10,0,0,1,20.563,10.563ZM9.406,15.857l7.419-7.419a.645.645,0,0,0,0-.912l-.912-.912a.645.645,0,0,0-.912,0L8.95,12.664,6.125,9.839a.645.645,0,0,0-.912,0l-.912.912a.645.645,0,0,0,0,.912l4.194,4.194a.645.645,0,0,0,.912,0Z" transform="translate(1.438 1.438)" fill="#58bc82"/>
</svg>
