<svg id="icon_speicher" xmlns="http://www.w3.org/2000/svg" width="28" height="28" viewBox="0 0 28 28">
  <rect id="Rechteck_2212" data-name="Rechteck 2212" width="28" height="28" fill="none"/>
  <path id="Icon" d="M2.828,11.835a2.79,2.79,0,0,1-1.1-.224,2.822,2.822,0,0,1-.48-.263A2.856,2.856,0,0,1,0,8.983V2.848A2.856,2.856,0,0,1,1.247.487,2.822,2.822,0,0,1,1.729.224,2.79,2.79,0,0,1,2.828,0H16.971a2.79,2.79,0,0,1,1.1.224,2.822,2.822,0,0,1,.48.263A2.856,2.856,0,0,1,19.8,2.848V8.983a2.856,2.856,0,0,1-1.247,2.366,2.822,2.822,0,0,1-.48.263,2.79,2.79,0,0,1-1.1.224ZM2.3,1.588a1.372,1.372,0,0,0-.831,1.264V8.983a1.375,1.375,0,0,0,.4.971,1.35,1.35,0,0,0,.962.4H16.971a1.343,1.343,0,0,0,.53-.108,1.372,1.372,0,0,0,.831-1.264V2.848a1.375,1.375,0,0,0-.4-.971,1.357,1.357,0,0,0-.432-.294,1.343,1.343,0,0,0-.53-.108H2.828a1.343,1.343,0,0,0-.53.113ZM3.378,9.3a.92.92,0,0,1-.915-.925V3.464a.92.92,0,0,1,.915-.925h6.7A.92.92,0,0,1,11,3.464V8.371a.92.92,0,0,1-.915.925ZM20.533,7.658V4.191A.733.733,0,1,1,22,4.177V7.644a.733.733,0,1,1-1.467.014Z" transform="translate(3 8.082)" fill="#233977"/>
</svg>
