<svg id="icon_wechselrichtertyp" xmlns="http://www.w3.org/2000/svg" width="28" height="28" viewBox="0 0 28 28">
  <rect id="Rechteck_2214" data-name="Rechteck 2214" width="28" height="28" fill="none"/>
  <path id="Icon" d="M6.99,15.668l-.014-.013-2.524-2.51a.834.834,0,0,1-.013-1.17l.013-.014L6.976,9.45a.844.844,0,0,1,1.19,0,.834.834,0,0,1,.013,1.17l-.013.014L7.078,11.715h9.744a3.369,3.369,0,0,0,3.367-3.292V7.531a.841.841,0,1,1,1.682-.016v.856a5.047,5.047,0,0,1-4.964,5.017H7.078L8.166,14.47a.834.834,0,0,1,.013,1.17l-.013.014a.844.844,0,0,1-1.176.013ZM0,8.385V7.529A5.047,5.047,0,0,1,4.964,2.511h9.83L13.706,1.429a.834.834,0,0,1-.013-1.17l.013-.014A.844.844,0,0,1,14.882.232L14.9.245l2.524,2.51a.834.834,0,0,1,.014,1.17l-.014.014L14.9,6.449a.844.844,0,0,1-1.19,0,.834.834,0,0,1-.013-1.17l.013-.014L14.8,4.183H5.05A3.369,3.369,0,0,0,1.683,7.476v.892A.842.842,0,1,1,0,8.385Z" transform="translate(3.064 6.05)" fill="#233977"/>
</svg>
