<svg id="icon_informationen_37x32" xmlns="http://www.w3.org/2000/svg" xmlns:xlink="http://www.w3.org/1999/xlink" width="37" height="32" viewBox="0 0 37 32">
  <defs>
    <clipPath id="clip-path">
      <rect id="Rechteck_477" data-name="Rechteck 477" width="29.683" height="23" fill="#233977"/>
    </clipPath>
  </defs>
  <rect id="Rechteck_2174" data-name="Rechteck 2174" width="37" height="32" fill="none"/>
  <g id="icon_informationen" transform="translate(4 5)" clip-path="url(#clip-path)">
    <path id="Pfad_309" data-name="Pfad 309" d="M83.433,35.2a1.546,1.546,0,1,0-1.546-1.546A1.546,1.546,0,0,0,83.433,35.2" transform="translate(-57.57 -22.57)" fill="#233977"/>
    <path id="Pfad_310" data-name="Pfad 310" d="M82.035,54.1H80.366V47.888a.954.954,0,0,0-.954-.935H77.49a.954.954,0,0,0-.935.954v.018a.954.954,0,0,0,.954.935h.954V54.1H76.775a.954.954,0,1,0,.018,1.907h5.259a.954.954,0,0,0-.018-1.907" transform="translate(-53.314 -33.011)" fill="#233977"/>
    <path id="Pfad_311" data-name="Pfad 311" d="M26.639,4.612,26.383.831h0A.894.894,0,0,0,25.495,0H1.941a.894.894,0,0,0-.889.831L0,16.358a.89.89,0,0,0,.889.951h9.894v3.882h-.436a.891.891,0,0,0,0,1.782h6.737a.891.891,0,0,0,0-1.782h-.428V17.309H20.29a.891.891,0,1,0,0-1.782H14.608V9.545H20.29a.891.891,0,1,0,0-1.782H14.608V1.782H24.662l.041.6v.032l.16,2.331.05.738h0l.1,1.439A.891.891,0,0,0,26.786,6.8ZM2.773,1.782H12.827V7.763H2.368ZM1.843,15.528l.4-5.983H12.827v5.983Zm13.036,5.664H12.57V17.309h2.309Z" transform="translate(0 0)" fill="#233977"/>
  </g>
</svg>
