<svg id="icon_allgemeine-infos" xmlns="http://www.w3.org/2000/svg" width="28" height="28" viewBox="0 0 28 28">
  <rect id="Rechteck_2204" data-name="Rechteck 2204" width="28" height="28" fill="none"/>
  <path id="Icon" d="M7.723,23.8a1.7,1.7,0,0,1-.6-.515l-.072-.1c-.743-1.016-1.456-2.052-2.12-3.08-.725-1.119-1.4-2.228-1.981-3.3l-.066-.119c-.462-.842-.873-1.658-1.224-2.417C1.3,13.492,1,12.741.755,12.042a15.5,15.5,0,0,1-.562-2.033A9.421,9.421,0,0,1,0,8.192,7.914,7.914,0,0,1,.663,5a8.1,8.1,0,0,1,.784-1.392A8.326,8.326,0,0,1,2.485,2.392,8.5,8.5,0,0,1,3.742,1.4,8.615,8.615,0,0,1,6.78.166a8.858,8.858,0,0,1,3.415,0A8.614,8.614,0,0,1,13.228,1.4a8.5,8.5,0,0,1,1.257.995,8.323,8.323,0,0,1,1.038,1.216A8.1,8.1,0,0,1,16.307,5,7.914,7.914,0,0,1,16.97,8.19a9.427,9.427,0,0,1-.193,1.82,15.507,15.507,0,0,1-.563,2.034c-.242.7-.547,1.45-.906,2.233-.349.761-.762,1.574-1.224,2.415-.606,1.105-1.295,2.253-2.046,3.414-.688,1.062-1.427,2.134-2.2,3.183L9.83,23.3a1.68,1.68,0,0,1-1.321.679H8.488a1.68,1.68,0,0,1-.765-.185ZM7.117,1.845a6.985,6.985,0,0,0-1.276.379,6.9,6.9,0,0,0-1.153.6,6.789,6.789,0,0,0-1,.793,6.613,6.613,0,0,0-.828.96A6.4,6.4,0,0,0,2.23,5.681,6.191,6.191,0,0,0,1.7,8.192a7.789,7.789,0,0,0,.181,1.566,14.252,14.252,0,0,0,.521,1.82A29.577,29.577,0,0,0,4.375,15.86c.587,1.069,1.255,2.183,1.99,3.316.67,1.035,1.388,2.076,2.137,3.1L8.5,22.264l.069-.093c.722-.987,1.416-1.99,2.063-2.994.7-1.088,1.351-2.163,1.921-3.2l.064-.111a29.555,29.555,0,0,0,1.975-4.283,14.252,14.252,0,0,0,.521-1.821,7.8,7.8,0,0,0,.168-1.576,6.191,6.191,0,0,0-.533-2.516,6.4,6.4,0,0,0-.626-1.105,6.611,6.611,0,0,0-.828-.96,6.789,6.789,0,0,0-1-.793,6.9,6.9,0,0,0-1.153-.6A6.987,6.987,0,0,0,9.857,1.84a7.175,7.175,0,0,0-2.74,0Zm.049,9.873a3.387,3.387,0,0,1-.577-.316,3.44,3.44,0,0,1,0-5.682,3.367,3.367,0,0,1,3.8,0,3.44,3.44,0,0,1,0,5.682,3.367,3.367,0,0,1-3.22.316Zm.663-4.736a1.691,1.691,0,0,0-.539.367,1.722,1.722,0,0,0,0,2.423,1.69,1.69,0,0,0,2.406,0,1.722,1.722,0,0,0,0-2.423,1.69,1.69,0,0,0-1.866-.367Z" transform="translate(5.515 2.009)" fill="#233977"/>
</svg>
