<svg id="icon_komponenten_37x32" xmlns="http://www.w3.org/2000/svg" xmlns:xlink="http://www.w3.org/1999/xlink" width="37" height="32" viewBox="0 0 37 32">
  <defs>
    <clipPath id="clip-path">
      <rect id="Rechteck_480" data-name="Rechteck 480" width="36.007" height="22.999" fill="#233977"/>
    </clipPath>
  </defs>
  <rect id="Rechteck_2175" data-name="Rechteck 2175" width="37" height="32" fill="none"/>
  <g id="Gruppe_605" data-name="Gruppe 605" transform="translate(0.344 4.501)" clip-path="url(#clip-path)">
    <path id="Pfad_320" data-name="Pfad 320" d="M26.67,4.617,26.415.832A.9.9,0,0,0,25.525,0H1.938a.9.9,0,0,0-.89.832L0,16.378a.892.892,0,0,0,.89.952H10.8v3.886h-.437a.892.892,0,1,0,0,1.784h6.745a.892.892,0,1,0,0-1.784h-.429V17.33h3.638a.892.892,0,0,0,0-1.784h-5.69V9.557h5.691a.892.892,0,1,0,0-1.784H14.625V1.784H24.691l.041.6v.032l.159,2.335.05.739h0l.1,1.44a.892.892,0,0,0,.955.825h0a.892.892,0,0,0,.829-.951ZM2.776,1.784H12.842V7.773H2.371Zm-.93,13.762.405-5.989H12.842v5.989Zm13.047,5.67H12.581V17.33h2.312Z" transform="translate(0)" fill="#233977"/>
    <path id="Pfad_321" data-name="Pfad 321" d="M80.717,36.791h-3.56V33.23h3.561Zm.446-4.9H76.711a.892.892,0,0,0-.892.892v4.452a.893.893,0,0,0,.892.892h4.452a.892.892,0,0,0,.892-.892V32.785a.892.892,0,0,0-.892-.892" transform="translate(-53.279 -22.412)" fill="#233977"/>
    <path id="Pfad_322" data-name="Pfad 322" d="M105.044,36.732h-3.561V33.171h3.561Zm.446-4.9h-4.452a.892.892,0,0,0-.892.892v4.452a.893.893,0,0,0,.892.892h4.452a.892.892,0,0,0,.892-.892V32.726a.892.892,0,0,0-.892-.892" transform="translate(-70.373 -22.37)" fill="#233977"/>
    <path id="Pfad_323" data-name="Pfad 323" d="M80.7,61.288H77.137V57.727H80.7Zm.446-4.9H76.692a.892.892,0,0,0-.892.892V61.73a.893.893,0,0,0,.892.892h4.452a.892.892,0,0,0,.892-.892V57.282a.892.892,0,0,0-.892-.892" transform="translate(-53.266 -39.626)" fill="#233977"/>
    <path id="Pfad_324" data-name="Pfad 324" d="M105.024,61.229h-3.561V57.668h3.561Zm.446-4.9h-4.452a.892.892,0,0,0-.892.892v4.452a.893.893,0,0,0,.892.892h4.452a.892.892,0,0,0,.892-.892V57.223a.892.892,0,0,0-.892-.892" transform="translate(-70.36 -39.584)" fill="#233977"/>
  </g>
</svg>
