<svg id="fa_icon_circle-info-regular_24x24" xmlns="http://www.w3.org/2000/svg" width="24" height="24" viewBox="0 0 24 24">
  <rect id="Rechteck_330" data-name="Rechteck 330" width="24" height="24" fill="none"/>
  <path id="circle-info-regular" d="M10,1.875A8.125,8.125,0,1,1,1.875,10,8.125,8.125,0,0,1,10,1.875ZM10,20A10,10,0,1,0,0,10,10,10,0,0,0,10,20ZM8.438,13.125a.938.938,0,0,0,0,1.875h3.125a.938.938,0,0,0,0-1.875H11.25V9.688a.935.935,0,0,0-.937-.938H8.438a.938.938,0,1,0,0,1.875h.938v2.5ZM10,7.5A1.25,1.25,0,1,0,8.75,6.25,1.25,1.25,0,0,0,10,7.5Z" transform="translate(2 2)" fill="#233977"/>
</svg>
