<svg id="button_inbetriebnahme_fortsetzen" data-name="button_inbetriebnahme fortsetzen" xmlns="http://www.w3.org/2000/svg" width="35" height="35" viewBox="0 0 35 35">
  <rect id="Rechteck_11" data-name="Rechteck 11" width="35" height="35" rx="17.5" fill="#233977"/>
  <path id="Icon_awesome-tools" data-name="Icon awesome-tools" d="M16.635,13.138,12.747,9.25a2.465,2.465,0,0,0-2.835-.461L6.373,5.249V3.187L2.123,0,0,2.125l3.187,4.25H5.247L8.787,9.914a2.471,2.471,0,0,0,.461,2.835l3.888,3.888a1.234,1.234,0,0,0,1.75,0l1.75-1.75a1.24,1.24,0,0,0,0-1.75ZM11.011,7.47A3.493,3.493,0,0,1,13.5,8.5l.644.644A4.7,4.7,0,0,0,15.6,8.164a4.775,4.775,0,0,0,1.258-4.539.4.4,0,0,0-.667-.183l-2.47,2.47-2.254-.375-.375-2.254,2.47-2.47a.4.4,0,0,0-.189-.671A4.783,4.783,0,0,0,8.833,1.4a4.705,4.705,0,0,0-1.368,3.44l2.726,2.726a3.617,3.617,0,0,1,.82-.1Zm-3.45,2.723L5.679,8.31.619,13.373a2.125,2.125,0,0,0,3,3l4.1-4.1a3.565,3.565,0,0,1-.166-2.082ZM2.123,15.671a.8.8,0,1,1,.8-.8A.8.8,0,0,1,2.123,15.671Z" transform="translate(9.003 9)" fill="#fff"/>
</svg>
