<svg id="icon_support" xmlns="http://www.w3.org/2000/svg" width="28" height="28" viewBox="0 0 28 28">
  <g id="Gruppe_338" data-name="Gruppe 338">
    <rect id="Rechteck_2148" data-name="Rechteck 2148" width="28" height="28" fill="none"/>
    <path id="icon_support-2" data-name="icon_support" d="M8.78,22.122a10.812,10.812,0,0,1-2.064-.653,10.943,10.943,0,0,1-1.868-1.03A11.2,11.2,0,0,1,.219,13.426a11.464,11.464,0,0,1,0-4.5A11.2,11.2,0,0,1,4.848,1.909,10.864,10.864,0,0,1,17.1,1.877a11.1,11.1,0,0,1,3.048,3.1,11.278,11.278,0,0,1,1.638,4.009,11.411,11.411,0,0,1-.01,4.443,11.176,11.176,0,0,1-4.625,7.014,10.858,10.858,0,0,1-8.364,1.683ZM9.15,2.052a9.007,9.007,0,0,0-1.72.544,9.119,9.119,0,0,0-1.557.858A9.306,9.306,0,0,0,2.019,9.3a9.553,9.553,0,0,0,0,3.753A9.318,9.318,0,0,0,5.873,18.9a9.043,9.043,0,0,0,10.246,0,9.305,9.305,0,0,0,3.857-5.846A9.434,9.434,0,0,0,18.622,6a9.284,9.284,0,0,0-2.543-2.576A9.055,9.055,0,0,0,9.148,2.052ZM9.5,16.53a1.146,1.146,0,1,1,1.146,1.164A1.144,1.144,0,0,1,9.5,16.53Zm.4-3.027a3.563,3.563,0,0,1,1.729-3.076l.164-.109a5.424,5.424,0,0,0,1.167-.959,1.809,1.809,0,0,0-.8-2.89,2.958,2.958,0,0,0-1.162-.18,2.49,2.49,0,0,0-1.6.5,2.788,2.788,0,0,0-.27.252,2.2,2.2,0,0,0-.486.786,1.512,1.512,0,0,0-.06.23.081.081,0,0,1-.005.038v.03a.8.8,0,0,1-1.6-.117,1.986,1.986,0,0,1,.028-.238,3.159,3.159,0,0,1,.126-.482,3.824,3.824,0,0,1,.838-1.373,4.39,4.39,0,0,1,.426-.4,4.028,4.028,0,0,1,2.579-.862,4.381,4.381,0,0,1,1.874.338,4.174,4.174,0,0,1,1.3.942,3.158,3.158,0,0,1,.843,2.185,3.426,3.426,0,0,1-.817,2.287l-.035.04a6.877,6.877,0,0,1-1.476,1.226l-.109.076A1.959,1.959,0,0,0,11.516,13.5a.8.8,0,0,1-1.6,0Z" transform="translate(3.004 2.825)" fill="#233977"/>
  </g>
</svg>
