<svg id="icon_logout_36x36" xmlns="http://www.w3.org/2000/svg" width="36" height="36" viewBox="0 0 36 36">
  <circle id="Ellipse_137" data-name="Ellipse 137" cx="18" cy="18" r="18" fill="#f1f7fc"/>
  <g id="outline" transform="translate(10.135 9.679)">
    <path id="Icon" d="M2.466,16.643A2.558,2.558,0,0,1,0,14.039V2.648A2.565,2.565,0,0,1,2.425,0h8.5A2.558,2.558,0,0,1,13.39,2.6V4.539a.706.706,0,1,1-1.409.015V2.648a1.1,1.1,0,0,0-1.039-1.135H2.466A1.1,1.1,0,0,0,1.409,2.629V13.995A1.1,1.1,0,0,0,2.448,15.13H10.92a1.1,1.1,0,0,0,1.057-1.116V12.1a.706.706,0,1,1,1.409-.015v1.906a2.565,2.565,0,0,1-2.425,2.647h-8.5Zm12.536-4a.8.8,0,0,1-.011-1.057L15,11.569l2.32-2.491H7a.759.759,0,0,1-.014-1.513H17.321L15,5.074a.8.8,0,0,1-.011-1.057L15,4a.67.67,0,0,1,.985-.012L16,4l3.52,3.786a.76.76,0,0,1,.151.24h0v.005h0a.811.811,0,0,1,0,.59h0a.761.761,0,0,1-.131.213h0l-.014.015L16,12.639a.671.671,0,0,1-1,0Z" transform="translate(0.001 0)" fill="#233977"/>
  </g>
</svg>
