<svg id="icon_benutzer_zugriffsberechtige" xmlns="http://www.w3.org/2000/svg" width="28" height="28" viewBox="0 0 28 28">
  <g id="Gruppe_336" data-name="Gruppe 336">
    <rect id="Rechteck_2146" data-name="Rechteck 2146" width="28" height="28" fill="none"/>
    <path id="icon_benutzer" d="M10.027,20.658a1.372,1.372,0,0,1-.67-.17,1.5,1.5,0,0,1-.5-.451,1.818,1.818,0,0,1-.3-.7,1.964,1.964,0,0,1-.036-.4,2.011,2.011,0,0,1,.05-.414A7.931,7.931,0,0,1,9.7,15.872,7.738,7.738,0,0,1,11.6,13.888a8.558,8.558,0,0,1,2.512-1.24,9.907,9.907,0,0,1,2.932-.432,10.062,10.062,0,0,1,2.8.388,8.669,8.669,0,0,1,2.462,1.142,7.666,7.666,0,0,1,3.216,4.785,2.018,2.018,0,0,1,.049.414,1.972,1.972,0,0,1-.036.4,1.821,1.821,0,0,1-.3.7,1.493,1.493,0,0,1-.5.45,1.372,1.372,0,0,1-.669.17ZM14.716,14.4a7,7,0,0,0-1.984.919A5.92,5.92,0,0,0,10.3,18.7l-.02.076H23.821l-.011-.041a5.918,5.918,0,0,0-.878-1.921,5.848,5.848,0,0,0-1.482-1.456l-.038-.026a7.057,7.057,0,0,0-2.023-.931,8.515,8.515,0,0,0-2.341-.32,8.39,8.39,0,0,0-2.334.321ZM1.373,18.781a1.437,1.437,0,0,1-1.115-.635,1.577,1.577,0,0,1-.212-1.309A6.777,6.777,0,0,1,6.98,11.656a7.611,7.611,0,0,1,3.5.758.98.98,0,0,1,.42,1.24.85.85,0,0,1-.461.485.8.8,0,0,1-.653-.015l-.017-.007a6.074,6.074,0,0,0-2.788-.587,5.145,5.145,0,0,0-5.168,3.348l-.006.019H7.351a.9.9,0,0,1,.852.92v.019a.9.9,0,0,1-.83.939h-6Zm4.255-8.556a3.549,3.549,0,0,1-.6-.4A4.112,4.112,0,0,1,4.489,9.3a4.655,4.655,0,0,1-.456-.631,5.1,5.1,0,0,1-.356-.733,5.423,5.423,0,0,1-.371-1.658A4.816,4.816,0,0,1,3.5,4.53a4.19,4.19,0,0,1,.316-.753,3.859,3.859,0,0,1,.449-.644A3.625,3.625,0,0,1,4.814,2.6a3.482,3.482,0,0,1,.641-.392,3.532,3.532,0,0,1,3.684.4,3.668,3.668,0,0,1,.549.528,3.915,3.915,0,0,1,.444.652,4.215,4.215,0,0,1,.319.753,4.748,4.748,0,0,1,.2,1.736,5.434,5.434,0,0,1-.372,1.658,5.107,5.107,0,0,1-.356.727,4.664,4.664,0,0,1-.454.635,4.11,4.11,0,0,1-.535.525,3.548,3.548,0,0,1-.6.4,2.869,2.869,0,0,1-2.7,0Zm.523-6.3a1.816,1.816,0,0,0-.639.485,2.092,2.092,0,0,0-.4.761,2.789,2.789,0,0,0-.1.976,3.409,3.409,0,0,0,.215.992,2.992,2.992,0,0,0,.453.8,2.169,2.169,0,0,0,.613.539,1.318,1.318,0,0,0,1.386,0,2.17,2.17,0,0,0,.613-.539,3,3,0,0,0,.453-.8,3.423,3.423,0,0,0,.215-.992,2.718,2.718,0,0,0-.1-.966,2.124,2.124,0,0,0-.407-.763,1.848,1.848,0,0,0-.639-.49,1.948,1.948,0,0,0-.83-.176,1.99,1.99,0,0,0-.824.172Zm10.069,6.3a3.674,3.674,0,0,1-.781-.3,4.205,4.205,0,0,1-.711-.47,4.85,4.85,0,0,1-.637-.62,5.509,5.509,0,0,1-.538-.754,6.06,6.06,0,0,1-.424-.868,6.519,6.519,0,0,1-.441-1.984,5.777,5.777,0,0,1,.237-2.084,4.953,4.953,0,0,1,.373-.893,4.537,4.537,0,0,1,.524-.769A4.167,4.167,0,0,1,17.047,0,4.212,4.212,0,0,1,18.86.4a4.141,4.141,0,0,1,.767.47,4.31,4.31,0,0,1,.652.626,4.6,4.6,0,0,1,.526.771,4.977,4.977,0,0,1,.376.893,5.692,5.692,0,0,1,.237,2.072,6.534,6.534,0,0,1-.442,1.984,6.06,6.06,0,0,1-.424.868,5.508,5.508,0,0,1-.538.754,4.852,4.852,0,0,1-.635.62,4.2,4.2,0,0,1-.711.47,3.486,3.486,0,0,1-1.607.4,3.388,3.388,0,0,1-.839-.1Zm-.3-8.118a2.442,2.442,0,0,0-.864.653,2.8,2.8,0,0,0-.542,1.022,3.753,3.753,0,0,0-.134,1.311,4.509,4.509,0,0,0,.284,1.319,3.885,3.885,0,0,0,.6,1.064,3.154,3.154,0,0,0,.392.405,2.6,2.6,0,0,0,.435.305,1.872,1.872,0,0,0,1.9,0,2.6,2.6,0,0,0,.435-.305,3.155,3.155,0,0,0,.391-.405,3.885,3.885,0,0,0,.6-1.064,4.526,4.526,0,0,0,.286-1.321,3.664,3.664,0,0,0-.136-1.3,2.841,2.841,0,0,0-.545-1.023,2.481,2.481,0,0,0-.864-.66,2.658,2.658,0,0,0-1.119-.237,2.71,2.71,0,0,0-1.125.233Z" transform="translate(1.221 3.666)" fill="#233977"/>
  </g>
</svg>
