<svg id="icon_dashboard" xmlns="http://www.w3.org/2000/svg" width="28" height="28" viewBox="0 0 28 28">
  <g id="Gruppe_332" data-name="Gruppe 332">
    <rect id="Rechteck_2142" data-name="Rechteck 2142" width="28" height="28" fill="none"/>
    <path id="icon_dashboard-2" data-name="icon_dashboard" d="M14.555,21.783a.772.772,0,0,1-.766-.763V14.391A.386.386,0,0,0,13.417,14H9.575a.386.386,0,0,0-.383.377v6.626a.772.772,0,0,1-.751.778H3.83A1.544,1.544,0,0,1,2.3,20.253V10.479l-1,.98a.758.758,0,0,1-1.07-.011l-.012-.012a.787.787,0,0,1,.011-1.088l.012-.012L10.431.417A1.56,1.56,0,0,1,12.535.4l.017.017,2.769,2.695V1.555a.772.772,0,0,1,.751-.778h2.314a.772.772,0,0,1,.766.763V6.835l3.594,3.494a.787.787,0,0,1,.035,1.087l-.012.013a.758.758,0,0,1-1.07.037l-.013-.012-1-.98v9.748a1.545,1.545,0,0,1-1.507,1.556H14.555Zm-1.149-9.337a1.93,1.93,0,0,1,1.915,1.913v5.868h3.831V8.989L11.5,1.556h-.027L3.83,8.989V20.227H7.66V14.391a1.931,1.931,0,0,1,1.884-1.945h3.862Zm4.213-7.1V2.327h-.766V4.6Z" transform="translate(2.509 3.107)" fill="#233977"/>
  </g>
</svg>
