<svg id="icon_Anlagen" xmlns="http://www.w3.org/2000/svg" xmlns:xlink="http://www.w3.org/1999/xlink" width="28" height="28" viewBox="0 0 28 28">
  <defs>
    <clipPath id="clip-path">
      <rect id="Rechteck_464" data-name="Rechteck 464" width="26.317" height="23" fill="#233977"/>
    </clipPath>
  </defs>
  <g id="Gruppe_333" data-name="Gruppe 333">
    <rect id="Rechteck_2143" data-name="Rechteck 2143" width="28" height="28" fill="none"/>
    <g id="Icon_Anlagen-2" data-name="Icon_Anlagen" transform="translate(0.842 2.5)" clip-path="url(#clip-path)">
      <path id="Pfad_300" data-name="Pfad 300" d="M22.559,24.373l-.339-5.092-.1-1.522L21.9,14.35a.75.75,0,0,0-.738-.707H1.611a.75.75,0,0,0-.738.707L0,27.57a.77.77,0,0,0,.2.57.731.731,0,0,0,.541.241H8.951v3.3H8.59a.758.758,0,0,0,0,1.516h5.592a.758.758,0,0,0,0-1.516h-.357V28.379h8.206a.731.731,0,0,0,.541-.241.77.77,0,0,0,.2-.57l-.113-1.681ZM12.125,15.166H20.47l.339,5.092H12.125Zm-9.819,0h8.34v5.092H1.966Zm-.775,11.7.339-5.092H10.65v5.092Zm10.817,4.82H10.429v-3.3h1.919Zm-.226-4.82V21.771H20.9l.339,5.092Z" transform="translate(0 -10.2)" fill="#233977"/>
      <path id="Pfad_301" data-name="Pfad 301" d="M38.6.707h0A.75.75,0,0,0,37.859,0H18.309a.75.75,0,0,0-.738.707l-.113,1.784H18.94L19,1.517H37.175l.339,5.092.1,1.516.339,5.092H36.422l.09,1.516H38.73a.731.731,0,0,0,.541-.241.77.77,0,0,0,.2-.57Z" transform="translate(-13.152)" fill="#233977"/>
    </g>
  </g>
</svg>
