<svg id="icon_Handwerkbetrieb" xmlns="http://www.w3.org/2000/svg" width="28" height="28" viewBox="0 0 28 28">
  <rect id="Rechteck_2146" data-name="Rechteck 2146" width="28" height="28" fill="none"/>
  <path id="Icon" d="M6.979,20.735l-.03-.007a2.841,2.841,0,0,1-1.217-4.865l4.339-4.036-.99-.969a1.714,1.714,0,0,1-.5-1.264l-.05-.056c-.419-.412-.8-.772-1.153-1.067a7.609,7.609,0,0,0-.85-.639l-.034-.02a1.918,1.918,0,0,0-.39-.184,1.07,1.07,0,0,0-.175-.044H5.838a.741.741,0,0,0-.194.026H5.628l.012.013a1.03,1.03,0,0,1,.281.687v.024a1.031,1.031,0,0,1-.314.734L4.138,10.513a1.034,1.034,0,0,1-.72.292H3.4a1.042,1.042,0,0,1-.709-.29L.308,8.188.287,8.166a1.048,1.048,0,0,1,0-1.438l.021-.021L1.776,5.271a1.035,1.035,0,0,1,.725-.3h.02a1.036,1.036,0,0,1,.4.085h.007V5.032a1.805,1.805,0,0,1,.041-.494,1.288,1.288,0,0,1,.2-.439l.014-.02.009-.014L3.249,4A11.21,11.21,0,0,1,4.265,2.843,9.844,9.844,0,0,1,5.386,1.9l.084-.06A12.3,12.3,0,0,1,8.014.45,6.156,6.156,0,0,1,10.323,0h.041a4.829,4.829,0,0,1,1.592.289A4.343,4.343,0,0,1,12.625.6a3.173,3.173,0,0,1,.533.376l.019.017L13.191,1a5.294,5.294,0,0,1,.606.687.78.78,0,0,1,.074.83.831.831,0,0,1-.286.322.769.769,0,0,1-.419.127.824.824,0,0,1-.286-.052,3.153,3.153,0,0,0-.367-.11h.008L12.489,2.8a2.643,2.643,0,0,0-.505-.049,1.7,1.7,0,0,0-.178.006h-.043a3.21,3.21,0,0,0-.805.189,2.554,2.554,0,0,0-.662.341,1.77,1.77,0,0,0-.533.675,2.685,2.685,0,0,0-.21.973A.786.786,0,0,0,9.7,5.5l.006.01a4.886,4.886,0,0,0,.464.594c.217.245.5.547.876.922l.08.08.03.031.012.014a1.7,1.7,0,0,1,1.092.466L13.4,8.728l.978-.91a.55.55,0,0,0,.16-.538V7.264a8,8,0,0,1-.288-1.6,6.235,6.235,0,0,1,.075-1.524,5.005,5.005,0,0,1,.458-1.378,4.55,4.55,0,0,1,.854-1.175l.047-.046A5.6,5.6,0,0,1,19.548,0a5.47,5.47,0,0,1,1.063.1A5.126,5.126,0,0,1,21.63.419l.023.01a.839.839,0,0,1,.241,1.363l-2.543,2.54a.558.558,0,0,0,0,.785L20.473,6.24a.558.558,0,0,0,.785,0l2.557-2.56a.836.836,0,0,1,1.343.221v.009a3.961,3.961,0,0,1,.26.7,4.807,4.807,0,0,1,.138.77,5.582,5.582,0,0,1,.019.81,6.1,6.1,0,0,1-.1.825,6.224,6.224,0,0,1-.21.813,5.941,5.941,0,0,1-.314.777A4.993,4.993,0,0,1,24,9.95a4.612,4.612,0,0,1-1.642,1.041,5.641,5.641,0,0,1-1.973.336,7.783,7.783,0,0,1-2.005-.277.549.549,0,0,0-.547.159l-.861.92C19,14,21,15.815,21.825,16.5l.027.022a1.475,1.475,0,0,1,.121,2.164l-.017.017-1.677,1.677a1.5,1.5,0,0,1-2.156-.063l-.017-.019-.081-.093c-.764-.877-2.549-2.806-4.277-4.626l-4.011,4.29-.014.015a2.835,2.835,0,0,1-2.1.923h0a2.84,2.84,0,0,1-.649-.077Zm-.166-3.691-.022.02A1.238,1.238,0,1,0,8.554,18.8l.006-.006L16.685,10.1A2.147,2.147,0,0,1,18.8,9.5l.049.013a6.113,6.113,0,0,0,1.531.21A4.107,4.107,0,0,0,21.772,9.5a3.02,3.02,0,0,0,1.108-.694,3.669,3.669,0,0,0,.849-1.393,4.635,4.635,0,0,0,.21-.817,4.321,4.321,0,0,0,.052-.816V5.772l-1.6,1.6a2.155,2.155,0,0,1-3.018.023l-.025-.025L18.218,6.249a2.159,2.159,0,0,1,0-3.046l1.593-1.593h-.036c-.074,0-.151-.006-.226-.006a4.121,4.121,0,0,0-1.5.286,3.948,3.948,0,0,0-.687.35,3.669,3.669,0,0,0-.6.482l-.028.028a2.935,2.935,0,0,0-.556.8,3.541,3.541,0,0,0-.292.975,4.745,4.745,0,0,0-.034,1.109,6.409,6.409,0,0,0,.222,1.2l.006.025A2.152,2.152,0,0,1,15.462,9l-1.468,1.363-.031.035a.806.806,0,0,1-.1.084Zm12.4,2.086.028.032,1.49-1.491-.013-.01c-.9-.762-2.856-2.533-4.83-4.363l-1.04,1.112C16.588,16.248,18.4,18.2,19.209,19.13ZM10.2,9.716l.007.007.775.76.259.253.981-.912L11.159,8.786a.1.1,0,0,0-.113-.022l-.854.845-.014.014A.112.112,0,0,0,10.2,9.716ZM1.84,7.442,3.412,8.98l.714-.7h0a1.517,1.517,0,0,1-.175-.651V7.606a1.508,1.508,0,0,1,.419-1.08h0a1.371,1.371,0,0,1,.314-.241l.018-.01a2.346,2.346,0,0,1,1.128-.29,1.583,1.583,0,0,1,.2.008h.065a3.118,3.118,0,0,1,1.217.451A8.255,8.255,0,0,1,8.22,7.1c.351.287.734.629,1.147,1.029h0l.277-.246L9.57,7.81c-.351-.363-.612-.65-.821-.9a4.767,4.767,0,0,1-.5-.715A2.306,2.306,0,0,1,8,5.556a2.6,2.6,0,0,1-.048-.662V4.862a4.951,4.951,0,0,1,.116-.854,3.737,3.737,0,0,1,.257-.755A3.3,3.3,0,0,1,8.736,2.6,3.534,3.534,0,0,1,9.3,2.036a3.688,3.688,0,0,1,.711-.419H9.995a4.556,4.556,0,0,0-1.383.322A10.7,10.7,0,0,0,6.394,3.145a8.476,8.476,0,0,0-.964.792l-.048.046a9.581,9.581,0,0,0-.812.914l-.045.058v.077l.008.124a2.027,2.027,0,0,1,0,.443,1.222,1.222,0,0,1-.362.747l-.024.023a1.459,1.459,0,0,1-.448.278,2.009,2.009,0,0,1-.524.126H3.166A1.29,1.29,0,0,1,2.6,6.709H2.592Z" transform="translate(0.999 3.594)" fill="#233977"/>
</svg>
