<svg id="icon_logbuch" xmlns="http://www.w3.org/2000/svg" width="28" height="28" viewBox="0 0 28 28">
  <g id="Gruppe_334" data-name="Gruppe 334">
    <rect id="Rechteck_2144" data-name="Rechteck 2144" width="28" height="28" fill="none"/>
    <path id="icon_logbuch-2" data-name="icon_logbuch" d="M2.951,24A2.934,2.934,0,0,1,1.3,23.483a2.967,2.967,0,0,1-.436-.366A3,3,0,0,1,.5,22.68,2.969,2.969,0,0,1,0,21V7.8A3,3,0,0,1,.884,5.687a3.04,3.04,0,0,1,.443-.36,3.017,3.017,0,0,1,.509-.287A3.009,3.009,0,0,1,3,4.8H5.6V3A3.014,3.014,0,0,1,8.555,0h4.754A2.045,2.045,0,0,1,14.74.587l.02.02,5.459,5.549a2.055,2.055,0,0,1,.593,1.416V16.2a2.969,2.969,0,0,1-2.9,3h-2.7V21a3.022,3.022,0,0,1-.5,1.678,3,3,0,0,1-.359.444,2.965,2.965,0,0,1-.436.366A2.837,2.837,0,0,1,12.255,24Zm-.5-17.488a1.426,1.426,0,0,0-.748.745A1.391,1.391,0,0,0,1.6,7.8V21a1.416,1.416,0,0,0,.395.994,1.336,1.336,0,0,0,.43.3,1.313,1.313,0,0,0,.526.109h9.309a1.309,1.309,0,0,0,.525-.109,1.334,1.334,0,0,0,.428-.3,1.388,1.388,0,0,0,.288-.445A1.451,1.451,0,0,0,13.6,21V13.2H8.995a2.217,2.217,0,0,1-2.186-2.16V6.4h-3.8a1.406,1.406,0,0,0-.546.113ZM17.857,17.6a1.368,1.368,0,0,0,1.348-1.376V8.4H14.6a2.217,2.217,0,0,1-2.191-2.16V1.6H8.61A1.413,1.413,0,0,0,7.2,2.977V4.8h.508a2.027,2.027,0,0,1,1.445.607l5.462,5.551a2.073,2.073,0,0,1,.59,1.44h0v5.194ZM8.4,11v.012a.618.618,0,0,0,.594.594h4L8.4,6.926ZM14,6.2v.012a.618.618,0,0,0,.594.594h4L14,2.126Z" transform="translate(3.594 2)" fill="#233977"/>
  </g>
</svg>
