<svg id="Logo" xmlns="http://www.w3.org/2000/svg" xmlns:xlink="http://www.w3.org/1999/xlink" width="220.306" height="58" viewBox="0 0 220.306 58">
  <defs>
    <clipPath id="clip-path">
      <rect id="Rechteck_1" data-name="Rechteck 1" width="220.306" height="58" fill="none"/>
    </clipPath>
  </defs>
  <g id="Gruppe_1" data-name="Gruppe 1" clip-path="url(#clip-path)">
    <path id="Pfad_1" data-name="Pfad 1" d="M236.533,39.067l-7.308-10.425h-9.673l1.5-8.329h14.026a5.924,5.924,0,0,0,6.288-6.18c0-2.633-1.612-4.245-4.461-4.245H218.1l-5.16,29.179h-9.888L209.933,0h28.7c8.168,0,12.736,4.676,12.736,11.984,0,7.739-4.192,13.058-10.371,15.369l9.619,11.714Z" transform="translate(-80.751)" fill="#233977"/>
    <path id="Pfad_2" data-name="Pfad 2" d="M307.215,39.067c-9.995,0-16.5-7.147-16.5-16.766,0-13.112,10.639-22.3,23.375-22.3h21.827l-1.686,9.877-21.861.011a11.458,11.458,0,0,0-11.607,11.284c0,4.676,3.171,7.954,8.222,7.954h21.958l-1.7,9.941Z" transform="translate(-115.614)" fill="#233977"/>
    <path id="Pfad_3" data-name="Pfad 3" d="M131.491,48.391h-9.943l-1.748,9.92h10Z" transform="translate(-47.639 -19.244)" fill="#6eabde"/>
    <path id="Pfad_4" data-name="Pfad 4" d="M164.126,18.056a10.552,10.552,0,0,0,5.159-9.4C169.285,2.956,164.61,0,157.3,0H128.392l-4.3,24.406H134L136.56,9.835h19.291c1.936,0,2.795.967,2.795,2.311,0,1.935-1.236,3.331-3.816,3.331H140.321l-1.29,7.47h15.208c1.881,0,2.795.967,2.795,2.472a3.515,3.515,0,0,1-3.87,3.708H137.988L136.3,39.068h15.306c8.867,0,15.691-5.749,15.691-14.347a7.924,7.924,0,0,0-3.171-6.663" transform="translate(-49.35 0)" fill="#233977"/>
    <path id="Pfad_5" data-name="Pfad 5" d="M140.926,81.363h-2.1a5.036,5.036,0,0,0-5.087,5.092,3.507,3.507,0,0,0,3.54,3.78h2.1a5.217,5.217,0,0,0,5.147-5.273,3.374,3.374,0,0,0-3.6-3.6m-1.341,7.585h-2.1a2.433,2.433,0,0,1-2.452-2.625,3.592,3.592,0,0,1,3.588-3.672h2.1a2.369,2.369,0,0,1,2.489,2.565,3.684,3.684,0,0,1-3.625,3.732" transform="translate(-53.184 -32.356)" fill="#4a4a49"/>
    <path id="Pfad_6" data-name="Pfad 6" d="M166.122,81.364l-5.109,7.165L158.586,81.4l-.014-.041H157.03l1.625,4.577-1.9,2.591L154.212,81.4l-.014-.04h-1.531l3.147,8.579a.575.575,0,0,0,.6.414.9.9,0,0,0,.726-.4l1.95-2.736.976,2.719a.6.6,0,0,0,.6.414.921.921,0,0,0,.737-.4l6.113-8.5.069-.1Z" transform="translate(-60.713 -32.357)" fill="#4a4a49"/>
    <path id="Pfad_7" data-name="Pfad 7" d="M231.811,81.731c-.041-.363-.228-.547-.555-.547a.807.807,0,0,0-.7.439l-3.923,6.708-1.56-6.69a.565.565,0,0,0-.591-.457.777.777,0,0,0-.744.528l-3.894,8.452h1.293l3.083-6.677,1.447,6.3a.565.565,0,0,0,.591.493.839.839,0,0,0,.741-.475l3.7-6.319.705,6.62.006.054H232.7Z" transform="translate(-87.427 -32.286)" fill="#4a4a49"/>
    <path id="Pfad_8" data-name="Pfad 8" d="M273.359,81.237l-1.241,6.984-5.342-6.746a.711.711,0,0,0-.555-.3.833.833,0,0,0-.808.772l-1.438,8.138-.013.07h1.247l1.241-7,5.318,6.781a.754.754,0,0,0,.591.323.843.843,0,0,0,.785-.76l1.45-8.2.012-.071Z" transform="translate(-104.976 -32.279)" fill="#4a4a49"/>
    <path id="Pfad_9" data-name="Pfad 9" d="M305.471,86.322H309.7l-.461,2.625h-3.973a2.433,2.433,0,0,1-2.453-2.625A3.592,3.592,0,0,1,306.4,82.65h4.727l.226-1.288h-4.748a5.035,5.035,0,0,0-5.087,5.092,3.508,3.508,0,0,0,3.54,3.78h5.259l.9-5.116h-5.536Z" transform="translate(-119.909 -32.355)" fill="#4a4a49"/>
    <path id="Pfad_10" data-name="Pfad 10" d="M122.628,81.364h-6.153l-1.555,8.8-.012.07h1.3l.443-2.5h4.884a3.634,3.634,0,0,0,3.794-3.8,2.418,2.418,0,0,0-2.694-2.565m-.908,5.117h-4.855l.676-3.829h4.88a1.428,1.428,0,0,1,1.606,1.529,2.2,2.2,0,0,1-2.308,2.3" transform="translate(-45.697 -32.357)" fill="#4a4a49"/>
    <path id="Pfad_11" data-name="Pfad 11" d="M186.229,82.652l.227-1.288h-7.832l-1.555,8.8-.013.07H184.9l.226-1.288h-6.548l.464-2.624h6.207l.215-1.2h-6.209l.437-2.468Z" transform="translate(-70.412 -32.357)" fill="#4a4a49"/>
    <path id="Pfad_12" data-name="Pfad 12" d="M204.529,83.953a2.417,2.417,0,0,0-2.67-2.589h-6.285l-1.555,8.8-.013.07H195.3l.438-2.479h4.906l1.867,2.457.019.023h1.825l-2.226-2.716a3.63,3.63,0,0,0,2.4-3.568m-7.121,2.6h-1.456l.69-3.9h5.011c1.05,0,1.582.49,1.582,1.457a2.16,2.16,0,0,1-2.3,2.444Z" transform="translate(-77.153 -32.357)" fill="#4a4a49"/>
    <path id="Pfad_13" data-name="Pfad 13" d="M250.459,81.58a.585.585,0,0,0-.55-.421.876.876,0,0,0-.7.408l-6.621,8.488-.075.1h1.494l1.815-2.348h5.765l.991,2.348h1.544Zm-2.3,5.092H246.7l2.86-3.7,1.555,3.7Z" transform="translate(-96.443 -32.274)" fill="#4a4a49"/>
    <path id="Pfad_14" data-name="Pfad 14" d="M289.089,81.58a.585.585,0,0,0-.55-.421.874.874,0,0,0-.7.408l-6.621,8.488-.075.1h1.494l1.815-2.347h5.763l.99,2.348h1.546Zm-2.232,5.092h-1.531l2.858-3.7,1.556,3.7Z" transform="translate(-111.806 -32.274)" fill="#4a4a49"/>
    <path id="Pfad_15" data-name="Pfad 15" d="M329.386,82.652l.226-1.288h-7.831l-1.555,8.8-.012.07h7.843l.227-1.288h-6.549l.465-2.627h1.011v0h5.2l.214-1.2h-6.209l.437-2.467Z" transform="translate(-127.344 -32.357)" fill="#4a4a49"/>
    <path id="Pfad_16" data-name="Pfad 16" d="M347.685,83.953a2.417,2.417,0,0,0-2.669-2.589H338.73l-1.555,8.8-.013.07h1.294l.439-2.48H343.8l1.866,2.457.019.023h1.825l-2.226-2.716a3.63,3.63,0,0,0,2.4-3.568m-7.566,2.6h-1.011l.69-3.9h5.012c1.05,0,1.583.49,1.583,1.457a2.16,2.16,0,0,1-2.3,2.444Z" transform="translate(-134.084 -32.357)" fill="#4a4a49"/>
    <path id="Pfad_17" data-name="Pfad 17" d="M67.949.028h-57.8L0,57.87H58.149Z" transform="translate(0 -0.011)" fill="#6eabde"/>
    <path id="Pfad_18" data-name="Pfad 18" d="M61.438,23.633h0a1.2,1.2,0,0,0-1.194-1.116H28.61a1.2,1.2,0,0,0-1.193,1.116L26,44.485a1.2,1.2,0,0,0,1.114,1.274c.025,0,.051,0,.075,0h13.3v5.214H39.9a1.2,1.2,0,0,0-.061,2.393h9.109a1.2,1.2,0,1,0,0-2.393h-.576V45.764H61.653a1.2,1.2,0,0,0,1.2-1.2c0-.027,0-.053,0-.079ZM45.983,50.978h-3.1V45.764h3.1ZM43.23,35.337v8.038H28.48l.543-8.035ZM29.185,32.945l.546-8.034h13.5v8.034Zm16.438,0V24.911h13.5l.543,8.034Zm14.751,10.43H45.623V35.337H59.831Z" transform="translate(-10.34 -8.955)" fill="#fff"/>
  </g>
</svg>
